<svg xmlns="http://www.w3.org/2000/svg" xmlns:xlink="http://www.w3.org/1999/xlink" width="400" zoomAndPan="magnify" viewBox="0 0 300 74.999997" height="100" preserveAspectRatio="xMidYMid meet" version="1.0"><defs><g/></defs><g fill="#000000" fill-opacity="1"><g transform="translate(66.912534, 55.822802)"><g><path d="M 8.15625 0 L 7.234375 -2.1875 L 2.65625 -2.1875 L 1.703125 0 L 0 0 L 4.234375 -9.359375 L 5.609375 -9.359375 L 9.859375 0 Z M 3.21875 -3.515625 L 6.65625 -3.515625 L 4.9375 -7.515625 Z M 3.21875 -3.515625 "/></g></g></g><g fill="#000000" fill-opacity="1"><g transform="translate(82.775284, 55.822802)"><g><path d="M 8.796875 -9.359375 L 10.125 -9.359375 L 10.125 0 L 8.640625 0 L 8.640625 -5.8125 L 6.15625 0 L 5.03125 0 L 2.53125 -5.75 L 2.53125 0 L 1.03125 0 L 1.03125 -9.359375 L 2.375 -9.359375 L 5.59375 -2.03125 Z M 8.796875 -9.359375 "/></g></g></g><g fill="#000000" fill-opacity="1"><g transform="translate(99.951701, 55.822802)"><g><path d="M 8.71875 0 L 6.921875 0 L 5.734375 -3.109375 C 5.628906 -3.398438 5.46875 -3.601562 5.25 -3.71875 C 5.03125 -3.832031 4.742188 -3.890625 4.390625 -3.890625 L 2.6875 -3.890625 L 2.6875 0 L 1.015625 0 L 1.015625 -9.359375 L 5.015625 -9.359375 C 6.078125 -9.359375 6.882812 -9.125 7.4375 -8.65625 C 7.988281 -8.195312 8.265625 -7.53125 8.265625 -6.65625 C 8.265625 -6.039062 8.097656 -5.515625 7.765625 -5.078125 C 7.441406 -4.640625 6.976562 -4.332031 6.375 -4.15625 C 6.925781 -4.039062 7.320312 -3.65625 7.5625 -3 Z M 4.78125 -5.203125 C 5.425781 -5.203125 5.898438 -5.316406 6.203125 -5.546875 C 6.503906 -5.785156 6.65625 -6.148438 6.65625 -6.640625 C 6.65625 -7.109375 6.503906 -7.457031 6.203125 -7.6875 C 5.898438 -7.925781 5.425781 -8.046875 4.78125 -8.046875 L 2.671875 -8.046875 L 2.671875 -5.203125 Z M 4.78125 -5.203125 "/></g></g></g><g fill="#000000" fill-opacity="1"><g transform="translate(108.297163, 60.839694)"><g><path d="M 56.386719 5.996094 C 56.238281 5.996094 56.160156 6.070312 56.085938 6.300781 C 56.007812 6.449219 55.855469 6.527344 55.707031 6.527344 C 55.628906 6.527344 55.628906 6.527344 55.554688 6.449219 L 55.554688 6.527344 C 55.402344 6.527344 55.324219 6.449219 55.324219 6.375 C 55.324219 6.300781 55.324219 6.148438 55.402344 6.070312 C 55.402344 6.070312 55.324219 6.070312 55.25 5.996094 L 55.175781 5.996094 C 54.792969 6.070312 54.566406 6.375 54.339844 6.753906 C 54.113281 7.132812 53.808594 7.363281 53.351562 7.363281 C 47.8125 7.363281 46.445312 -8.425781 46.445312 -12.445312 C 46.445312 -13.207031 46.445312 -13.964844 46.523438 -14.722656 L 46.523438 -16.925781 L 48.648438 -37.339844 C 48.648438 -39.691406 48.117188 -42.195312 45.761719 -42.195312 C 45.535156 -42.195312 45.308594 -42.121094 45.082031 -41.96875 C 44.851562 -41.742188 44.699219 -41.664062 44.472656 -41.664062 C 46.21875 -44.777344 48.117188 -48.417969 48.117188 -52.0625 C 48.117188 -55.707031 44.699219 -57.601562 41.132812 -57.601562 C 36.503906 -57.601562 31.875 -55.476562 28.003906 -53.125 L 27.777344 -53.125 C 25.726562 -54.113281 24.058594 -54.792969 21.855469 -54.792969 C 12.523438 -54.792969 6.90625 -42.878906 6.90625 -34.152344 C 6.90625 -30.128906 7.816406 -26.941406 10.777344 -23.980469 L 9.867188 -17.757812 C 9.636719 -16.46875 9.636719 -15.101562 9.636719 -13.660156 C 9.636719 -7.96875 11.460938 0.0742188 17.835938 0.0742188 C 22.539062 0.0742188 26.941406 -4.707031 29.21875 -8.652344 L 32.101562 -13.660156 L 40.679688 -32.632812 C 41.894531 -35.289062 43.636719 -38.554688 46.066406 -40.375 C 46.21875 -40.375 46.292969 -40.222656 46.292969 -39.917969 C 46.371094 -39.769531 46.371094 -39.617188 46.371094 -39.386719 L 46.371094 -36.730469 L 44.550781 -21.097656 C 44.625 -19.808594 44.625 -18.441406 44.472656 -17.074219 C 44.246094 -15.632812 44.167969 -14.269531 44.167969 -12.902344 C 44.167969 -12.21875 44.246094 -11.460938 44.320312 -10.777344 C 44.398438 -10.019531 44.398438 -9.257812 44.320312 -8.574219 C 44.851562 -3.261719 46.371094 8.804688 52.820312 8.804688 C 53.199219 8.804688 54.71875 8.726562 54.71875 8.121094 C 55.628906 8.121094 56.539062 7.132812 56.539062 6.222656 C 56.539062 6.070312 56.464844 5.996094 56.386719 5.996094 Z M 28.382812 -50.925781 C 29.21875 -50.011719 30.054688 -44.472656 30.738281 -43.789062 L 30.8125 -43.714844 C 31.039062 -44.019531 31.117188 -44.320312 31.117188 -44.625 C 31.039062 -44.929688 31.117188 -45.230469 31.34375 -45.535156 L 31.34375 -44.398438 C 31.269531 -44.167969 31.269531 -43.941406 31.269531 -43.714844 C 31.875 -44.09375 31.800781 -45.460938 31.800781 -46.066406 C 31.800781 -48.117188 30.886719 -50.089844 29.597656 -51.683594 C 30.886719 -53.429688 32.9375 -53.277344 34.988281 -54.566406 C 37.339844 -55.476562 39.691406 -56.3125 42.347656 -56.3125 C 45.003906 -56.3125 46.75 -55.023438 46.75 -52.289062 C 46.75 -40.753906 32.558594 -28.613281 22.3125 -24.894531 C 19.960938 -24.058594 17.757812 -23.601562 15.710938 -23.601562 C 15.027344 -23.601562 13.207031 -23.832031 13.207031 -24.363281 L 13.207031 -24.511719 L 14.34375 -29.066406 L 16.847656 -35.972656 C 18.136719 -39.617188 20.644531 -43.183594 23.070312 -46.144531 C 24.363281 -47.660156 26.867188 -50.925781 28.382812 -50.925781 Z M 44.929688 -56.160156 C 45.003906 -56.160156 45.003906 -56.160156 45.003906 -56.085938 C 45.003906 -56.007812 45.003906 -56.007812 44.929688 -56.007812 C 44.851562 -56.007812 44.851562 -56.007812 44.851562 -56.085938 C 44.851562 -56.160156 44.851562 -56.160156 44.929688 -56.160156 Z M 45.761719 -55.554688 C 45.535156 -55.554688 45.15625 -55.78125 45.082031 -56.007812 C 45.308594 -55.933594 45.535156 -55.78125 45.761719 -55.554688 Z M 45.992188 -55.25 C 45.914062 -55.25 45.914062 -55.25 45.914062 -55.324219 Z M 47.433594 -53.199219 C 47.355469 -53.277344 47.355469 -53.429688 47.355469 -53.582031 L 47.433594 -53.582031 Z M 9.105469 -33.695312 C 9.105469 -41.589844 13.964844 -53.503906 22.691406 -53.503906 C 24.132812 -53.503906 25.574219 -53.050781 26.789062 -52.367188 C 26.105469 -51.53125 25.195312 -50.695312 24.210938 -50.011719 C 23.148438 -49.253906 22.238281 -48.496094 21.554688 -47.660156 C 17.683594 -43.636719 14.800781 -38.402344 13.28125 -33.011719 L 11.230469 -26.183594 C 9.488281 -27.550781 9.105469 -31.570312 9.105469 -33.695312 Z M 25.273438 -53.429688 C 25.347656 -53.429688 25.347656 -53.429688 25.347656 -53.351562 C 25.347656 -53.277344 25.347656 -53.277344 25.273438 -53.277344 C 25.195312 -53.277344 25.195312 -53.277344 25.195312 -53.351562 C 25.195312 -53.429688 25.195312 -53.429688 25.273438 -53.429688 Z M 25.878906 -53.125 C 25.957031 -53.125 26.714844 -52.746094 26.941406 -52.519531 L 25.804688 -53.125 Z M 30.433594 -49.179688 C 30.355469 -49.179688 30.355469 -49.179688 30.355469 -49.253906 C 30.355469 -49.332031 30.355469 -49.332031 30.433594 -49.332031 C 30.507812 -49.332031 30.507812 -49.332031 30.507812 -49.253906 C 30.507812 -49.179688 30.507812 -49.179688 30.433594 -49.179688 Z M 45.761719 -45.613281 L 45.6875 -45.613281 C 45.613281 -45.082031 45.382812 -44.625 45.003906 -44.09375 C 45.308594 -45.382812 46.21875 -47.433594 46.902344 -49.101562 C 46.523438 -47.433594 45.992188 -45.613281 45.761719 -45.613281 Z M 30.585938 -49.027344 C 30.660156 -49.027344 30.660156 -49.027344 30.660156 -48.949219 C 30.660156 -48.875 30.660156 -48.875 30.585938 -48.875 C 30.507812 -48.875 30.507812 -48.875 30.507812 -48.949219 C 30.507812 -49.027344 30.507812 -49.027344 30.585938 -49.027344 Z M 30.8125 -48.269531 C 30.738281 -48.269531 30.738281 -48.269531 30.738281 -48.34375 C 30.738281 -48.417969 30.738281 -48.417969 30.8125 -48.417969 C 30.886719 -48.417969 30.886719 -48.417969 30.886719 -48.34375 C 30.886719 -48.269531 30.886719 -48.269531 30.8125 -48.269531 Z M 30.886719 -48.039062 C 30.8125 -48.039062 30.8125 -48.039062 30.8125 -48.117188 C 30.8125 -48.191406 30.8125 -48.191406 30.886719 -48.191406 C 30.964844 -48.191406 30.964844 -48.191406 30.964844 -48.117188 C 30.964844 -48.039062 30.964844 -48.039062 30.886719 -48.039062 Z M 30.964844 -47.8125 C 31.039062 -47.738281 31.117188 -47.585938 31.117188 -47.433594 C 31.039062 -47.507812 30.964844 -47.660156 30.964844 -47.8125 Z M 31.191406 -46.976562 C 31.117188 -46.976562 31.117188 -46.976562 31.117188 -47.054688 L 31.191406 -47.054688 Z M 31.269531 -46.824219 L 31.191406 -46.824219 C 31.191406 -46.902344 31.191406 -46.902344 31.269531 -46.902344 Z M 31.269531 -46.523438 C 31.191406 -46.523438 31.191406 -46.523438 31.191406 -46.597656 C 31.191406 -46.675781 31.191406 -46.675781 31.269531 -46.675781 C 31.34375 -46.675781 31.34375 -46.675781 31.34375 -46.597656 C 31.34375 -46.523438 31.34375 -46.523438 31.269531 -46.523438 Z M 31.34375 -46.21875 L 31.34375 -45.6875 L 31.269531 -46.292969 Z M 20.339844 -44.019531 C 20.339844 -44.09375 20.339844 -44.09375 20.414062 -44.09375 C 20.492188 -44.09375 20.492188 -44.09375 20.492188 -44.019531 C 20.492188 -43.941406 20.492188 -43.941406 20.414062 -43.941406 C 20.339844 -43.941406 20.339844 -43.941406 20.339844 -44.019531 Z M 44.472656 -43.714844 C 44.472656 -43.789062 44.472656 -43.789062 44.550781 -43.789062 C 44.625 -43.789062 44.625 -43.789062 44.625 -43.714844 C 44.625 -43.636719 44.625 -43.636719 44.550781 -43.636719 C 44.472656 -43.636719 44.472656 -43.636719 44.472656 -43.714844 Z M 31.191406 -43.5625 C 31.269531 -43.5625 31.269531 -43.5625 31.269531 -43.636719 C 31.269531 -43.714844 31.269531 -43.714844 31.191406 -43.714844 C 31.117188 -43.714844 31.117188 -43.714844 31.117188 -43.636719 C 31.117188 -43.5625 31.117188 -43.5625 31.191406 -43.5625 Z M 44.398438 -43.257812 C 44.320312 -43.257812 44.320312 -43.257812 44.320312 -43.335938 C 44.320312 -43.410156 44.320312 -43.410156 44.398438 -43.410156 C 44.472656 -43.410156 44.472656 -43.410156 44.472656 -43.335938 C 44.472656 -43.335938 44.472656 -43.257812 44.472656 -43.257812 Z M 19.582031 -42.957031 C 19.582031 -43.03125 19.582031 -43.03125 19.65625 -43.03125 C 19.730469 -43.03125 19.730469 -43.03125 19.730469 -42.957031 C 19.730469 -42.878906 19.730469 -42.878906 19.65625 -42.878906 C 19.582031 -42.878906 19.582031 -42.878906 19.582031 -42.957031 Z M 43.636719 -41.285156 C 43.636719 -41.511719 43.714844 -41.664062 43.789062 -41.742188 C 43.867188 -41.816406 43.941406 -41.96875 43.941406 -42.042969 L 44.09375 -42.273438 L 44.167969 -42.273438 C 44.167969 -41.96875 43.867188 -41.511719 43.636719 -41.285156 Z M 18.972656 -41.96875 C 18.972656 -42.042969 18.972656 -42.042969 19.050781 -42.042969 C 19.125 -42.042969 19.125 -42.042969 19.125 -41.96875 C 19.125 -41.894531 19.125 -41.894531 19.050781 -41.894531 C 18.972656 -41.894531 18.972656 -41.894531 18.972656 -41.96875 Z M 19.050781 -41.816406 C 19.050781 -41.742188 19.050781 -41.742188 18.972656 -41.742188 C 18.898438 -41.742188 18.898438 -41.742188 18.898438 -41.816406 C 18.898438 -41.894531 18.898438 -41.894531 18.972656 -41.894531 C 19.050781 -41.894531 19.050781 -41.894531 19.050781 -41.816406 Z M 18.667969 -41.511719 C 18.667969 -41.589844 18.667969 -41.589844 18.746094 -41.589844 C 18.820312 -41.589844 18.820312 -41.589844 18.820312 -41.511719 C 18.820312 -41.4375 18.820312 -41.4375 18.746094 -41.4375 C 18.667969 -41.4375 18.667969 -41.4375 18.667969 -41.511719 Z M 18.441406 -41.132812 C 18.441406 -41.210938 18.441406 -41.210938 18.519531 -41.210938 C 18.59375 -41.210938 18.59375 -41.210938 18.59375 -41.132812 C 18.59375 -41.058594 18.59375 -41.058594 18.519531 -41.058594 C 18.441406 -41.058594 18.441406 -41.058594 18.441406 -41.132812 Z M 43.488281 -40.980469 C 43.488281 -40.980469 43.410156 -40.90625 43.335938 -40.679688 L 43.183594 -40.527344 L 43.105469 -40.527344 C 43.105469 -40.601562 43.105469 -40.679688 43.183594 -40.753906 C 43.257812 -40.832031 43.335938 -40.980469 43.335938 -41.058594 L 43.488281 -41.210938 L 43.5625 -41.210938 C 43.488281 -41.058594 43.488281 -41.058594 43.488281 -40.980469 Z M 47.355469 -40.527344 C 47.433594 -40.527344 47.433594 -40.527344 47.433594 -40.449219 C 47.433594 -40.375 47.433594 -40.375 47.355469 -40.375 C 47.28125 -40.375 47.28125 -40.375 47.28125 -40.449219 C 47.28125 -40.527344 47.28125 -40.527344 47.355469 -40.527344 Z M 42.957031 -40.222656 C 42.957031 -40.375 42.957031 -40.449219 43.03125 -40.449219 L 43.105469 -40.375 Z M 17.910156 -40.222656 C 17.910156 -40.300781 17.910156 -40.300781 17.988281 -40.300781 C 18.0625 -40.300781 18.0625 -40.300781 18.0625 -40.222656 C 18.0625 -40.148438 18.0625 -40.148438 17.988281 -40.148438 C 17.910156 -40.148438 17.910156 -40.148438 17.910156 -40.222656 Z M 47.355469 -40.300781 L 47.433594 -40.300781 L 47.433594 -40.222656 C 47.355469 -40.222656 47.355469 -40.222656 47.355469 -40.300781 Z M 42.726562 -39.996094 L 42.726562 -39.917969 L 42.652344 -39.917969 C 42.652344 -39.996094 42.652344 -39.996094 42.726562 -39.996094 Z M 47.660156 -39.691406 C 47.585938 -39.691406 47.507812 -39.769531 47.507812 -39.917969 C 47.585938 -39.917969 47.660156 -39.84375 47.660156 -39.691406 Z M 8.804688 -39.691406 C 8.726562 -39.691406 8.726562 -39.691406 8.726562 -39.769531 C 8.726562 -39.84375 8.726562 -39.84375 8.804688 -39.84375 C 8.878906 -39.84375 8.878906 -39.84375 8.878906 -39.769531 C 8.878906 -39.691406 8.878906 -39.691406 8.804688 -39.691406 Z M 42.652344 -39.84375 L 42.652344 -39.769531 L 42.574219 -39.769531 C 42.574219 -39.84375 42.574219 -39.84375 42.652344 -39.84375 Z M 17.683594 -39.617188 C 17.683594 -39.691406 17.683594 -39.691406 17.757812 -39.691406 L 17.757812 -39.617188 Z M 47.660156 -39.539062 L 47.660156 -39.3125 C 47.585938 -39.386719 47.507812 -39.464844 47.507812 -39.539062 Z M 8.726562 -39.3125 C 8.652344 -39.3125 8.652344 -39.3125 8.652344 -39.386719 C 8.652344 -39.464844 8.652344 -39.464844 8.726562 -39.464844 C 8.804688 -39.464844 8.804688 -39.464844 8.804688 -39.386719 C 8.804688 -39.3125 8.804688 -39.3125 8.726562 -39.3125 Z M 42.347656 -39.3125 C 42.273438 -39.3125 42.273438 -39.3125 42.273438 -39.386719 C 42.273438 -39.464844 42.273438 -39.464844 42.347656 -39.464844 C 42.425781 -39.464844 42.425781 -39.464844 42.425781 -39.386719 C 42.425781 -39.3125 42.425781 -39.3125 42.347656 -39.3125 Z M 42.273438 -39.238281 L 42.195312 -39.238281 L 42.273438 -39.3125 Z M 47.507812 -35.746094 C 47.507812 -35.972656 47.507812 -36.277344 47.585938 -36.503906 C 47.660156 -36.730469 47.660156 -36.960938 47.660156 -37.1875 L 47.660156 -37.644531 L 47.585938 -37.871094 C 47.585938 -37.945312 47.585938 -38.023438 47.660156 -38.097656 L 47.660156 -38.78125 C 47.585938 -38.855469 47.585938 -39.007812 47.585938 -39.238281 C 47.738281 -39.160156 47.8125 -38.855469 47.8125 -38.476562 L 47.8125 -37.71875 C 47.8125 -37.492188 47.8125 -37.035156 47.886719 -36.503906 C 47.886719 -35.898438 47.8125 -35.441406 47.585938 -35.214844 C 47.507812 -35.289062 47.507812 -35.367188 47.507812 -35.519531 Z M 8.726562 -39.160156 L 8.804688 -39.085938 C 8.726562 -39.085938 8.726562 -39.085938 8.726562 -39.160156 Z M 17.378906 -39.085938 C 17.378906 -39.160156 17.378906 -39.160156 17.457031 -39.160156 L 17.457031 -39.085938 Z M 42.121094 -39.007812 C 42.121094 -38.933594 42.121094 -38.933594 42.042969 -38.933594 C 41.96875 -38.933594 41.96875 -38.933594 41.96875 -39.007812 C 41.96875 -39.085938 41.96875 -39.085938 42.042969 -39.085938 C 42.042969 -39.160156 42.042969 -39.160156 42.121094 -39.160156 C 42.195312 -39.160156 42.195312 -39.160156 42.195312 -39.085938 C 42.195312 -39.007812 42.195312 -39.007812 42.121094 -39.007812 Z M 8.726562 -38.933594 C 8.652344 -38.933594 8.652344 -38.933594 8.652344 -39.007812 C 8.652344 -39.085938 8.652344 -39.085938 8.726562 -39.085938 C 8.804688 -39.085938 8.804688 -39.085938 8.804688 -39.007812 C 8.804688 -38.933594 8.804688 -38.933594 8.726562 -38.933594 Z M 42.042969 -39.085938 C 42.042969 -39.007812 42.042969 -39.007812 42.121094 -39.007812 C 42.121094 -39.085938 42.121094 -39.085938 42.042969 -39.085938 Z M 17.304688 -38.855469 L 17.304688 -38.933594 L 17.378906 -38.933594 Z M 41.894531 -38.707031 C 41.816406 -38.707031 41.816406 -38.707031 41.816406 -38.78125 C 41.816406 -38.855469 41.816406 -38.855469 41.894531 -38.855469 C 41.96875 -38.855469 41.96875 -38.855469 41.96875 -38.78125 C 41.96875 -38.707031 41.96875 -38.707031 41.894531 -38.707031 Z M 8.726562 -38.628906 C 8.652344 -38.628906 8.652344 -38.628906 8.652344 -38.707031 C 8.652344 -38.78125 8.652344 -38.78125 8.726562 -38.78125 C 8.804688 -38.78125 8.804688 -38.78125 8.804688 -38.707031 C 8.804688 -38.628906 8.804688 -38.628906 8.726562 -38.628906 Z M 41.742188 -38.476562 C 41.742188 -38.402344 41.742188 -38.402344 41.664062 -38.402344 C 41.589844 -38.402344 41.589844 -38.402344 41.589844 -38.476562 C 41.589844 -38.554688 41.589844 -38.554688 41.664062 -38.554688 C 41.742188 -38.554688 41.742188 -38.554688 41.742188 -38.476562 Z M 8.574219 -38.097656 C 8.5 -38.097656 8.5 -38.097656 8.5 -38.175781 C 8.5 -38.25 8.5 -38.25 8.574219 -38.25 C 8.652344 -38.25 8.652344 -38.25 8.652344 -38.175781 C 8.652344 -38.097656 8.652344 -38.097656 8.574219 -38.097656 Z M 16.773438 -38.023438 C 16.773438 -38.097656 16.773438 -38.097656 16.847656 -38.097656 C 16.925781 -38.097656 16.925781 -38.097656 16.925781 -38.023438 C 16.925781 -37.945312 16.925781 -37.945312 16.847656 -37.945312 C 16.773438 -37.945312 16.773438 -37.945312 16.773438 -38.023438 Z M 8.574219 -37.871094 C 8.5 -37.871094 8.5 -37.871094 8.5 -37.945312 C 8.5 -38.023438 8.5 -38.023438 8.574219 -38.023438 C 8.652344 -38.023438 8.652344 -38.023438 8.652344 -37.945312 C 8.652344 -37.871094 8.652344 -37.871094 8.574219 -37.871094 Z M 42.726562 -37.644531 C 42.652344 -37.644531 42.652344 -37.644531 42.652344 -37.71875 C 42.652344 -37.792969 42.652344 -37.792969 42.726562 -37.792969 C 42.804688 -37.792969 42.804688 -37.792969 42.804688 -37.71875 C 42.804688 -37.644531 42.804688 -37.644531 42.726562 -37.644531 Z M 41.058594 -37.644531 C 41.058594 -37.566406 41.058594 -37.492188 40.980469 -37.492188 C 40.980469 -37.566406 40.980469 -37.566406 41.058594 -37.644531 Z M 16.621094 -37.492188 C 16.621094 -37.566406 16.621094 -37.566406 16.695312 -37.566406 C 16.773438 -37.566406 16.773438 -37.566406 16.773438 -37.492188 C 16.773438 -37.414062 16.773438 -37.414062 16.695312 -37.414062 C 16.621094 -37.414062 16.621094 -37.414062 16.621094 -37.492188 Z M 8.5 -37.339844 C 8.425781 -37.339844 8.425781 -37.339844 8.425781 -37.414062 C 8.425781 -37.492188 8.425781 -37.492188 8.5 -37.492188 C 8.574219 -37.492188 8.574219 -37.492188 8.574219 -37.414062 C 8.574219 -37.339844 8.574219 -37.339844 8.5 -37.339844 Z M 16.316406 -37.261719 C 16.316406 -37.339844 16.316406 -37.339844 16.394531 -37.339844 C 16.46875 -37.339844 16.46875 -37.339844 16.46875 -37.261719 C 16.46875 -37.1875 16.46875 -37.1875 16.394531 -37.1875 C 16.316406 -37.1875 16.316406 -37.1875 16.316406 -37.261719 Z M 40.832031 -37.261719 L 40.753906 -37.261719 C 40.753906 -37.339844 40.753906 -37.339844 40.832031 -37.339844 Z M 40.679688 -37.035156 C 40.601562 -37.035156 40.601562 -37.035156 40.601562 -37.113281 C 40.601562 -37.1875 40.601562 -37.1875 40.679688 -37.1875 C 40.753906 -37.1875 40.753906 -37.1875 40.753906 -37.113281 C 40.753906 -37.035156 40.753906 -37.035156 40.679688 -37.035156 Z M 16.394531 -37.113281 C 16.46875 -37.113281 16.46875 -37.113281 16.46875 -37.035156 C 16.46875 -36.960938 16.46875 -36.960938 16.394531 -36.960938 C 16.316406 -36.960938 16.316406 -36.960938 16.316406 -37.035156 C 16.316406 -37.113281 16.316406 -37.113281 16.394531 -37.113281 Z M 40.601562 -36.960938 C 40.601562 -36.882812 40.601562 -36.882812 40.527344 -36.882812 C 40.449219 -36.882812 40.449219 -36.882812 40.449219 -36.960938 C 40.449219 -37.035156 40.449219 -37.035156 40.527344 -37.035156 C 40.601562 -37.035156 40.601562 -37.035156 40.601562 -36.960938 Z M 42.121094 -36.503906 C 42.042969 -36.503906 42.042969 -36.503906 42.042969 -36.582031 C 42.042969 -36.65625 42.042969 -36.65625 42.121094 -36.65625 C 42.195312 -36.65625 42.195312 -36.65625 42.195312 -36.582031 C 42.195312 -36.503906 42.195312 -36.503906 42.121094 -36.503906 Z M 15.9375 -36.277344 C 15.9375 -36.351562 15.9375 -36.351562 16.011719 -36.351562 L 16.011719 -36.277344 Z M 41.742188 -36.050781 C 41.664062 -36.050781 41.664062 -36.050781 41.664062 -36.125 C 41.664062 -36.199219 41.664062 -36.199219 41.742188 -36.199219 C 41.816406 -36.199219 41.816406 -36.199219 41.816406 -36.125 C 41.816406 -36.050781 41.816406 -36.050781 41.742188 -36.050781 Z M 16.011719 -36.125 C 16.089844 -36.125 16.089844 -36.125 16.089844 -36.050781 C 16.089844 -35.972656 16.089844 -35.972656 16.011719 -35.972656 C 15.9375 -35.972656 15.9375 -35.972656 15.9375 -36.050781 C 15.9375 -36.125 15.9375 -36.125 16.011719 -36.125 Z M 8.273438 -36.050781 L 8.273438 -35.972656 C 8.195312 -35.972656 8.195312 -35.972656 8.195312 -36.050781 Z M 41.664062 -35.898438 C 41.589844 -35.898438 41.589844 -35.898438 41.589844 -35.972656 C 41.589844 -36.050781 41.589844 -36.050781 41.664062 -36.050781 C 41.742188 -36.050781 41.742188 -36.050781 41.742188 -35.972656 C 41.742188 -35.898438 41.742188 -35.898438 41.664062 -35.898438 Z M 16.011719 -35.898438 C 16.011719 -35.820312 16.011719 -35.820312 15.9375 -35.820312 C 15.863281 -35.820312 15.863281 -35.820312 15.863281 -35.898438 C 15.863281 -35.972656 15.863281 -35.972656 15.9375 -35.972656 C 16.011719 -35.972656 16.011719 -35.972656 16.011719 -35.898438 Z M 15.785156 -35.820312 L 15.863281 -35.820312 L 15.863281 -35.746094 C 15.785156 -35.746094 15.785156 -35.746094 15.785156 -35.820312 Z M 39.386719 -35.59375 C 39.3125 -35.59375 39.3125 -35.59375 39.3125 -35.667969 C 39.3125 -35.746094 39.3125 -35.746094 39.386719 -35.746094 C 39.464844 -35.746094 39.464844 -35.746094 39.464844 -35.667969 C 39.464844 -35.59375 39.464844 -35.59375 39.386719 -35.59375 Z M 41.4375 -35.441406 C 41.4375 -35.367188 41.4375 -35.367188 41.363281 -35.367188 C 41.285156 -35.367188 41.285156 -35.367188 41.285156 -35.441406 C 41.285156 -35.519531 41.285156 -35.519531 41.363281 -35.519531 C 41.285156 -35.519531 41.285156 -35.519531 41.285156 -35.59375 C 41.285156 -35.667969 41.285156 -35.667969 41.363281 -35.667969 C 41.4375 -35.667969 41.4375 -35.667969 41.4375 -35.59375 C 41.4375 -35.519531 41.4375 -35.519531 41.363281 -35.519531 C 41.4375 -35.519531 41.4375 -35.519531 41.4375 -35.441406 Z M 39.3125 -35.59375 L 39.3125 -35.519531 C 39.238281 -35.519531 39.238281 -35.519531 39.238281 -35.59375 Z M 15.632812 -35.367188 L 15.632812 -35.441406 L 15.710938 -35.441406 L 15.710938 -35.367188 Z M 41.210938 -35.136719 L 41.210938 -35.289062 L 41.285156 -35.289062 Z M 15.480469 -34.988281 C 15.480469 -35.0625 15.480469 -35.0625 15.558594 -35.0625 C 15.632812 -35.0625 15.632812 -35.0625 15.632812 -34.988281 C 15.632812 -34.910156 15.632812 -34.910156 15.558594 -34.910156 C 15.480469 -34.910156 15.480469 -34.910156 15.480469 -34.988281 Z M 39.539062 -34.988281 C 39.539062 -35.0625 39.539062 -35.0625 39.617188 -35.0625 C 39.691406 -35.0625 39.691406 -35.0625 39.691406 -34.988281 C 39.691406 -34.910156 39.691406 -34.910156 39.617188 -34.910156 C 39.617188 -34.835938 39.617188 -34.835938 39.539062 -34.835938 C 39.464844 -34.835938 39.464844 -34.835938 39.464844 -34.910156 C 39.464844 -34.988281 39.464844 -34.988281 39.539062 -34.988281 Z M 47.507812 -34.835938 C 47.507812 -34.910156 47.507812 -34.910156 47.585938 -35.0625 C 47.585938 -35.0625 47.585938 -34.988281 47.660156 -34.910156 C 47.660156 -34.835938 47.660156 -34.835938 47.585938 -34.757812 C 47.507812 -34.683594 47.507812 -34.683594 47.507812 -34.605469 Z M 39.617188 -34.910156 C 39.617188 -34.988281 39.617188 -34.988281 39.539062 -34.988281 C 39.539062 -34.910156 39.539062 -34.910156 39.617188 -34.910156 Z M 41.058594 -34.835938 C 40.980469 -34.835938 40.980469 -34.835938 40.980469 -34.910156 C 40.980469 -34.988281 40.980469 -34.988281 41.058594 -34.988281 C 41.132812 -34.988281 41.132812 -34.988281 41.132812 -34.910156 C 41.132812 -34.835938 41.132812 -34.835938 41.058594 -34.835938 Z M 29.371094 -13.054688 L 26.105469 -7.816406 C 24.132812 -5.007812 21.023438 -1.441406 17.378906 -1.441406 C 12.976562 -1.441406 11.914062 -9.410156 11.914062 -13.207031 C 11.914062 -16.46875 12.292969 -19.351562 12.902344 -22.769531 C 14.039062 -22.464844 14.722656 -22.3125 15.710938 -22.3125 C 22.386719 -22.3125 30.128906 -26.488281 35.136719 -30.738281 C 35.667969 -31.417969 36.351562 -32.101562 37.339844 -32.9375 C 38.25 -33.695312 38.933594 -34.304688 39.464844 -34.835938 L 39.464844 -34.757812 Z M 15.40625 -34.683594 L 15.40625 -34.757812 L 15.480469 -34.683594 Z M 15.253906 -34.605469 L 15.332031 -34.605469 L 15.332031 -34.53125 C 15.253906 -34.53125 15.253906 -34.53125 15.253906 -34.605469 Z M 47.585938 -34.457031 C 47.585938 -34.226562 47.585938 -34.074219 47.507812 -33.925781 L 47.585938 -33.925781 C 47.660156 -33.925781 47.660156 -33.925781 47.660156 -33.847656 C 47.660156 -33.773438 47.660156 -33.773438 47.585938 -33.773438 L 47.507812 -33.773438 C 47.507812 -33.621094 47.433594 -33.46875 47.355469 -33.316406 L 47.355469 -34.074219 C 47.28125 -34.304688 47.355469 -34.378906 47.585938 -34.457031 Z M 40.679688 -34.226562 L 40.601562 -34.378906 L 40.753906 -34.378906 C 40.753906 -34.304688 40.753906 -34.304688 40.679688 -34.226562 Z M 40.527344 -33.847656 C 40.449219 -33.847656 40.449219 -33.847656 40.449219 -33.925781 C 40.449219 -34 40.449219 -34 40.527344 -34 C 40.601562 -34 40.601562 -34 40.601562 -33.925781 C 40.601562 -33.847656 40.601562 -33.847656 40.527344 -33.847656 Z M 15.027344 -33.773438 C 15.027344 -33.773438 15.027344 -33.847656 15.101562 -33.925781 C 15.101562 -33.847656 15.101562 -33.847656 15.027344 -33.773438 Z M 47.507812 -33.847656 L 47.507812 -33.773438 C 47.507812 -33.847656 47.507812 -33.847656 47.507812 -33.925781 Z M 40.449219 -33.695312 L 40.375 -33.695312 L 40.449219 -33.773438 Z M 15.101562 -33.695312 C 15.179688 -33.695312 15.179688 -33.695312 15.179688 -33.621094 C 15.179688 -33.542969 15.179688 -33.542969 15.101562 -33.542969 C 15.027344 -33.542969 15.027344 -33.542969 15.027344 -33.621094 C 15.027344 -33.695312 15.027344 -33.695312 15.101562 -33.695312 Z M 40.300781 -33.394531 C 40.222656 -33.394531 40.222656 -33.394531 40.222656 -33.46875 C 40.222656 -33.542969 40.222656 -33.542969 40.300781 -33.542969 C 40.375 -33.542969 40.375 -33.542969 40.375 -33.46875 C 40.375 -33.394531 40.375 -33.394531 40.300781 -33.394531 Z M 39.996094 -33.164062 C 39.917969 -33.164062 39.917969 -33.164062 39.917969 -33.242188 C 39.917969 -33.316406 39.917969 -33.316406 39.996094 -33.316406 C 40.070312 -33.316406 40.070312 -33.316406 40.070312 -33.242188 C 40.070312 -33.164062 40.070312 -33.164062 39.996094 -33.164062 Z M 40.222656 -33.242188 C 40.148438 -33.242188 40.148438 -33.242188 40.148438 -33.316406 L 40.222656 -33.316406 Z M 8.195312 -33.089844 C 8.121094 -33.089844 8.121094 -33.089844 8.121094 -33.164062 C 8.121094 -33.242188 8.121094 -33.242188 8.195312 -33.242188 C 8.273438 -33.242188 8.273438 -33.242188 8.273438 -33.164062 C 8.273438 -33.089844 8.273438 -33.089844 8.195312 -33.089844 Z M 46.824219 -30.207031 C 46.902344 -30.433594 46.976562 -30.738281 46.976562 -30.964844 L 46.976562 -31.648438 C 47.054688 -31.722656 47.128906 -31.949219 47.128906 -32.253906 L 47.128906 -32.785156 C 47.207031 -32.863281 47.28125 -32.9375 47.28125 -33.011719 C 47.207031 -33.089844 47.28125 -33.089844 47.355469 -33.164062 C 47.355469 -32.179688 47.355469 -30.660156 46.824219 -29.824219 C 46.824219 -29.902344 46.824219 -29.902344 46.902344 -29.976562 L 46.902344 -30.054688 Z M 14.648438 -33.011719 L 14.722656 -33.011719 L 14.722656 -32.9375 C 14.648438 -32.9375 14.648438 -32.9375 14.648438 -33.011719 Z M 39.917969 -32.710938 L 39.84375 -32.710938 C 39.84375 -32.785156 39.84375 -32.785156 39.917969 -32.785156 Z M 14.570312 -32.710938 L 14.648438 -32.710938 L 14.648438 -32.632812 C 14.570312 -32.632812 14.570312 -32.632812 14.570312 -32.710938 Z M 14.648438 -32.558594 C 14.648438 -32.480469 14.648438 -32.480469 14.570312 -32.480469 C 14.496094 -32.480469 14.496094 -32.480469 14.496094 -32.558594 C 14.496094 -32.632812 14.496094 -32.632812 14.570312 -32.632812 C 14.648438 -32.632812 14.648438 -32.632812 14.648438 -32.558594 Z M 8.121094 -32.40625 C 8.042969 -32.40625 8.042969 -32.40625 8.042969 -32.480469 C 8.042969 -32.558594 8.042969 -32.558594 8.121094 -32.558594 C 8.195312 -32.558594 8.195312 -32.558594 8.195312 -32.480469 C 8.195312 -32.40625 8.195312 -32.40625 8.121094 -32.40625 Z M 39.691406 -32.179688 C 39.691406 -32.101562 39.691406 -32.101562 39.617188 -32.101562 C 39.539062 -32.101562 39.539062 -32.101562 39.539062 -32.179688 C 39.539062 -32.253906 39.539062 -32.253906 39.617188 -32.253906 C 39.617188 -32.332031 39.617188 -32.332031 39.691406 -32.332031 C 39.769531 -32.332031 39.769531 -32.332031 39.769531 -32.253906 C 39.769531 -32.179688 39.769531 -32.179688 39.691406 -32.179688 Z M 39.617188 -32.253906 C 39.617188 -32.179688 39.617188 -32.179688 39.691406 -32.179688 C 39.691406 -32.253906 39.691406 -32.253906 39.617188 -32.253906 Z M 39.464844 -31.949219 C 39.386719 -31.949219 39.386719 -31.949219 39.386719 -32.027344 C 39.386719 -32.101562 39.386719 -32.101562 39.464844 -32.101562 C 39.539062 -32.101562 39.539062 -32.101562 39.539062 -32.027344 C 39.539062 -31.949219 39.539062 -31.949219 39.464844 -31.949219 Z M 39.386719 -31.875 L 39.386719 -31.949219 L 39.464844 -31.875 Z M 39.386719 -31.570312 C 39.3125 -31.570312 39.3125 -31.570312 39.3125 -31.648438 C 39.3125 -31.722656 39.3125 -31.722656 39.386719 -31.722656 C 39.464844 -31.722656 39.464844 -31.722656 39.464844 -31.648438 C 39.464844 -31.570312 39.464844 -31.570312 39.386719 -31.570312 Z M 14.117188 -31.570312 C 14.117188 -31.648438 14.117188 -31.648438 14.191406 -31.648438 C 14.269531 -31.648438 14.269531 -31.648438 14.269531 -31.570312 C 14.269531 -31.496094 14.269531 -31.496094 14.191406 -31.496094 C 14.117188 -31.496094 14.117188 -31.496094 14.117188 -31.570312 Z M 39.3125 -31.417969 C 39.238281 -31.417969 39.238281 -31.417969 39.238281 -31.496094 C 39.238281 -31.570312 39.238281 -31.570312 39.3125 -31.570312 C 39.386719 -31.570312 39.386719 -31.570312 39.386719 -31.496094 C 39.386719 -31.417969 39.386719 -31.417969 39.3125 -31.417969 Z M 39.160156 -31.191406 C 39.160156 -31.117188 39.160156 -31.117188 39.085938 -31.117188 C 39.160156 -31.117188 39.160156 -31.117188 39.160156 -31.039062 C 39.160156 -30.964844 39.160156 -30.964844 39.085938 -30.964844 C 39.007812 -30.964844 39.007812 -30.964844 39.007812 -31.039062 C 39.007812 -31.117188 39.007812 -31.117188 39.085938 -31.117188 C 39.007812 -31.117188 39.007812 -31.117188 39.007812 -31.191406 C 39.007812 -31.269531 39.007812 -31.269531 39.085938 -31.269531 C 39.007812 -31.269531 39.007812 -31.269531 39.007812 -31.34375 C 39.007812 -31.417969 39.007812 -31.417969 39.085938 -31.417969 C 39.160156 -31.417969 39.160156 -31.417969 39.160156 -31.34375 C 39.160156 -31.269531 39.160156 -31.269531 39.085938 -31.269531 C 39.160156 -31.269531 39.160156 -31.269531 39.160156 -31.191406 Z M 8.273438 -31.117188 C 8.273438 -31.191406 8.273438 -31.191406 8.347656 -31.191406 C 8.425781 -31.191406 8.425781 -31.191406 8.425781 -31.117188 C 8.425781 -31.039062 8.425781 -31.039062 8.347656 -31.039062 C 8.273438 -31.039062 8.273438 -31.039062 8.273438 -31.117188 Z M 14.191406 -31.117188 C 14.191406 -31.039062 14.191406 -31.039062 14.117188 -31.039062 C 14.039062 -31.039062 14.039062 -31.039062 14.039062 -31.117188 C 14.039062 -31.191406 14.039062 -31.191406 14.117188 -31.191406 C 14.191406 -31.191406 14.191406 -31.191406 14.191406 -31.117188 Z M 13.964844 -31.039062 L 14.039062 -31.039062 L 14.039062 -30.964844 C 13.964844 -30.964844 13.964844 -30.964844 13.964844 -31.039062 Z M 8.347656 -30.738281 C 8.347656 -30.8125 8.347656 -30.8125 8.425781 -30.8125 C 8.5 -30.8125 8.5 -30.8125 8.5 -30.738281 C 8.5 -30.660156 8.5 -30.660156 8.425781 -30.660156 C 8.347656 -30.660156 8.347656 -30.660156 8.347656 -30.738281 Z M 13.886719 -30.738281 L 13.964844 -30.738281 L 13.964844 -30.660156 C 13.886719 -30.660156 13.886719 -30.660156 13.886719 -30.738281 Z M 13.8125 -30.585938 C 13.8125 -30.660156 13.8125 -30.660156 13.886719 -30.660156 C 13.964844 -30.660156 13.964844 -30.660156 13.964844 -30.585938 C 13.964844 -30.507812 13.964844 -30.507812 13.886719 -30.507812 C 13.964844 -30.507812 13.964844 -30.507812 13.964844 -30.433594 C 13.964844 -30.355469 13.964844 -30.355469 13.886719 -30.355469 C 13.8125 -30.355469 13.8125 -30.355469 13.8125 -30.433594 C 13.8125 -30.507812 13.8125 -30.507812 13.886719 -30.507812 C 13.8125 -30.507812 13.8125 -30.507812 13.8125 -30.585938 Z M 38.707031 -30.433594 C 38.628906 -30.433594 38.628906 -30.433594 38.628906 -30.507812 L 38.707031 -30.507812 Z M 13.738281 -30.28125 L 13.8125 -30.28125 L 13.8125 -30.207031 C 13.738281 -30.207031 13.738281 -30.207031 13.738281 -30.28125 Z M 38.707031 -30.128906 L 38.628906 -30.054688 L 38.628906 -30.28125 L 38.707031 -30.28125 Z M 8.5 -29.824219 C 8.425781 -29.824219 8.425781 -29.824219 8.425781 -29.902344 C 8.425781 -29.976562 8.425781 -29.976562 8.5 -29.976562 C 8.574219 -29.976562 8.574219 -29.976562 8.574219 -29.902344 C 8.574219 -29.824219 8.574219 -29.824219 8.5 -29.824219 Z M 38.554688 -29.824219 C 38.476562 -29.75 38.476562 -29.75 38.476562 -29.675781 C 38.476562 -29.675781 38.402344 -29.675781 38.402344 -29.824219 C 38.402344 -29.902344 38.476562 -29.902344 38.554688 -29.902344 Z M 38.324219 -29.445312 C 38.25 -29.445312 38.25 -29.445312 38.25 -29.523438 C 38.25 -29.597656 38.25 -29.597656 38.324219 -29.597656 C 38.402344 -29.597656 38.402344 -29.597656 38.402344 -29.523438 C 38.402344 -29.445312 38.402344 -29.445312 38.324219 -29.445312 Z M 46.371094 -26.714844 C 46.371094 -26.941406 46.445312 -27.167969 46.523438 -27.398438 C 46.597656 -27.625 46.675781 -27.929688 46.675781 -28.15625 L 46.597656 -28.308594 L 46.675781 -28.460938 L 46.675781 -28.761719 C 46.675781 -28.761719 46.675781 -28.839844 46.675781 -28.839844 L 46.75 -28.839844 C 46.824219 -28.839844 46.824219 -28.839844 46.824219 -28.914062 C 46.824219 -28.992188 46.824219 -28.992188 46.75 -28.992188 L 46.675781 -28.992188 C 46.75 -28.992188 46.75 -29.066406 46.75 -29.066406 C 46.75 -29.144531 46.75 -29.21875 46.824219 -29.371094 L 46.824219 -29.597656 L 46.902344 -29.597656 L 46.902344 -29.066406 C 46.824219 -28.914062 46.824219 -28.761719 46.824219 -28.535156 L 46.824219 -28.382812 L 46.902344 -28.230469 C 46.902344 -28.15625 46.902344 -28.15625 46.824219 -28.082031 C 46.824219 -27.929688 46.824219 -27.851562 46.75 -27.851562 C 46.75 -27.625 46.75 -27.398438 46.675781 -27.167969 C 46.675781 -27.167969 46.675781 -27.09375 46.675781 -27.09375 L 46.597656 -27.09375 C 46.523438 -27.09375 46.523438 -27.09375 46.523438 -27.019531 C 46.523438 -26.941406 46.523438 -26.941406 46.597656 -26.941406 L 46.597656 -26.488281 C 46.523438 -26.410156 46.523438 -26.335938 46.523438 -26.183594 L 46.523438 -25.878906 C 46.523438 -25.804688 46.445312 -25.726562 46.371094 -25.726562 Z M 38.023438 -28.914062 C 38.023438 -28.992188 38.097656 -29.144531 38.175781 -29.371094 C 38.25 -29.371094 38.25 -29.292969 38.25 -29.21875 C 38.25 -28.992188 38.175781 -28.914062 38.023438 -28.914062 Z M 46.675781 -29.21875 L 46.675781 -29.144531 C 46.597656 -29.144531 46.597656 -29.144531 46.597656 -29.21875 Z M 13.355469 -28.992188 C 13.355469 -29.066406 13.355469 -29.066406 13.433594 -29.066406 C 13.507812 -29.066406 13.507812 -29.066406 13.507812 -28.992188 C 13.507812 -28.914062 13.507812 -28.914062 13.433594 -28.914062 C 13.355469 -28.914062 13.355469 -28.914062 13.355469 -28.992188 Z M 13.28125 -28.761719 L 13.355469 -28.761719 L 13.355469 -28.6875 C 13.28125 -28.6875 13.28125 -28.6875 13.28125 -28.761719 Z M 37.871094 -28.535156 C 37.871094 -28.308594 37.871094 -28.230469 37.792969 -28.230469 L 37.792969 -28.460938 C 37.792969 -28.535156 37.792969 -28.535156 37.871094 -28.6875 Z M 13.433594 -28.535156 C 13.433594 -28.535156 13.355469 -28.535156 13.28125 -28.460938 L 13.28125 -28.613281 Z M 13.054688 -28.15625 C 12.976562 -28.15625 12.976562 -28.15625 12.976562 -28.230469 C 12.976562 -28.308594 12.976562 -28.308594 13.054688 -28.308594 C 13.128906 -28.308594 13.128906 -28.308594 13.128906 -28.230469 C 13.128906 -28.15625 13.128906 -28.15625 13.054688 -28.15625 Z M 13.054688 -27.777344 C 13.054688 -28.003906 13.128906 -28.082031 13.207031 -28.15625 C 13.207031 -27.929688 13.128906 -27.777344 13.054688 -27.777344 Z M 13.355469 -28.082031 C 13.433594 -28.082031 13.433594 -28.082031 13.433594 -28.003906 C 13.433594 -27.929688 13.433594 -27.929688 13.355469 -27.929688 C 13.28125 -27.929688 13.28125 -27.929688 13.28125 -28.003906 C 13.28125 -28.082031 13.28125 -28.082031 13.355469 -28.082031 Z M 37.492188 -27.699219 L 37.492188 -27.777344 L 37.566406 -27.777344 Z M 13.128906 -27.625 L 13.128906 -27.550781 C 13.054688 -27.550781 13.054688 -27.550781 13.054688 -27.625 Z M 12.824219 -27.398438 L 12.976562 -27.398438 L 12.976562 -27.167969 Z M 37.414062 -27.246094 C 37.339844 -27.246094 37.339844 -27.246094 37.339844 -27.320312 C 37.339844 -27.398438 37.339844 -27.398438 37.414062 -27.398438 C 37.492188 -27.398438 37.492188 -27.398438 37.492188 -27.320312 C 37.492188 -27.246094 37.492188 -27.246094 37.414062 -27.246094 Z M 12.824219 -27.09375 L 12.902344 -27.09375 L 12.902344 -27.019531 C 12.824219 -27.019531 12.824219 -27.019531 12.824219 -27.09375 Z M 12.75 -27.019531 L 12.902344 -26.867188 L 12.824219 -26.789062 L 12.824219 -26.867188 C 12.75 -26.941406 12.75 -26.941406 12.75 -27.019531 Z M 37.113281 -26.714844 C 37.035156 -26.714844 37.035156 -26.714844 37.035156 -26.789062 C 37.035156 -26.867188 37.035156 -26.867188 37.113281 -26.867188 C 37.1875 -26.867188 37.1875 -26.867188 37.1875 -26.789062 C 37.1875 -26.714844 37.1875 -26.714844 37.113281 -26.714844 Z M 12.675781 -26.183594 L 12.597656 -26.183594 C 12.597656 -26.257812 12.675781 -26.410156 12.75 -26.636719 C 12.75 -26.636719 12.75 -26.5625 12.824219 -26.488281 C 12.824219 -26.488281 12.824219 -26.410156 12.75 -26.335938 Z M 37.035156 -26.488281 C 36.960938 -26.488281 36.960938 -26.488281 36.960938 -26.5625 C 36.960938 -26.636719 36.960938 -26.636719 37.035156 -26.636719 C 37.113281 -26.636719 37.113281 -26.636719 37.113281 -26.5625 C 37.113281 -26.488281 37.113281 -26.488281 37.035156 -26.488281 Z M 36.882812 -26.257812 L 36.808594 -26.257812 C 36.808594 -26.335938 36.808594 -26.335938 36.882812 -26.335938 Z M 36.730469 -25.652344 C 36.65625 -25.574219 36.65625 -25.652344 36.65625 -25.878906 C 36.65625 -26.03125 36.65625 -26.105469 36.730469 -26.03125 Z M 12.75 -25.878906 C 12.75 -25.804688 12.75 -25.804688 12.675781 -25.804688 C 12.597656 -25.804688 12.597656 -25.804688 12.597656 -25.878906 C 12.597656 -25.957031 12.597656 -25.957031 12.675781 -25.957031 C 12.75 -25.957031 12.75 -25.957031 12.75 -25.878906 Z M 12.597656 -25.726562 L 12.597656 -25.652344 C 12.523438 -25.652344 12.523438 -25.652344 12.523438 -25.726562 Z M 12.371094 -25.425781 C 12.371094 -25.5 12.445312 -25.574219 12.523438 -25.574219 C 12.523438 -25.347656 12.523438 -25.273438 12.445312 -25.195312 L 12.445312 -25.347656 Z M 46.371094 -25.425781 C 46.445312 -25.425781 46.445312 -25.347656 46.445312 -25.273438 C 46.371094 -25.273438 46.292969 -25.347656 46.292969 -25.574219 C 46.371094 -25.5 46.371094 -25.5 46.371094 -25.425781 Z M 46.523438 -25.425781 C 46.445312 -25.425781 46.445312 -25.425781 46.445312 -25.5 C 46.445312 -25.574219 46.445312 -25.574219 46.523438 -25.574219 C 46.597656 -25.574219 46.597656 -25.574219 46.597656 -25.5 C 46.597656 -25.425781 46.597656 -25.425781 46.523438 -25.425781 Z M 36.351562 -24.96875 L 36.351562 -25.273438 C 36.429688 -25.273438 36.503906 -25.273438 36.582031 -25.195312 Z M 46.292969 -25.042969 L 46.371094 -24.96875 L 46.371094 -24.742188 C 46.371094 -24.511719 46.371094 -24.285156 46.292969 -24.132812 C 46.21875 -23.90625 46.21875 -23.679688 46.292969 -23.449219 L 46.144531 -23.375 C 46.21875 -23.832031 46.21875 -24.363281 46.21875 -24.664062 L 46.144531 -24.816406 C 46.21875 -24.894531 46.292969 -24.96875 46.292969 -25.042969 Z M 36.277344 -24.742188 C 36.199219 -24.742188 36.199219 -24.742188 36.199219 -24.816406 C 36.199219 -24.894531 36.199219 -24.894531 36.277344 -24.894531 C 36.351562 -24.894531 36.351562 -24.894531 36.351562 -24.816406 C 36.351562 -24.742188 36.351562 -24.742188 36.277344 -24.742188 Z M 36.199219 -24.664062 C 36.125 -24.664062 36.125 -24.664062 36.125 -24.742188 L 36.199219 -24.742188 Z M 36.125 -24.363281 C 36.050781 -24.363281 36.050781 -24.363281 36.050781 -24.4375 L 36.125 -24.4375 Z M 35.972656 -23.90625 L 35.820312 -23.980469 L 35.972656 -24.132812 Z M 35.898438 -23.753906 C 35.820312 -23.753906 35.820312 -23.753906 35.820312 -23.832031 C 35.820312 -23.90625 35.820312 -23.90625 35.898438 -23.90625 C 35.972656 -23.90625 35.972656 -23.90625 35.972656 -23.832031 C 35.972656 -23.753906 35.972656 -23.753906 35.898438 -23.753906 Z M 35.746094 -23.753906 C 35.746094 -23.679688 35.746094 -23.679688 35.667969 -23.679688 C 35.59375 -23.679688 35.59375 -23.679688 35.59375 -23.753906 C 35.59375 -23.832031 35.59375 -23.832031 35.667969 -23.832031 C 35.746094 -23.832031 35.746094 -23.832031 35.746094 -23.753906 Z M 35.820312 -23.601562 C 35.746094 -23.601562 35.746094 -23.601562 35.746094 -23.679688 C 35.746094 -23.753906 35.746094 -23.753906 35.820312 -23.753906 C 35.898438 -23.753906 35.898438 -23.753906 35.898438 -23.679688 C 35.898438 -23.601562 35.898438 -23.601562 35.820312 -23.601562 Z M 35.746094 -23.375 C 35.746094 -23.300781 35.746094 -23.300781 35.667969 -23.300781 C 35.746094 -23.300781 35.746094 -23.300781 35.746094 -23.222656 C 35.746094 -23.148438 35.746094 -23.148438 35.667969 -23.148438 C 35.59375 -23.148438 35.59375 -23.148438 35.59375 -23.222656 C 35.59375 -23.300781 35.59375 -23.300781 35.667969 -23.300781 C 35.59375 -23.300781 35.59375 -23.300781 35.59375 -23.375 C 35.59375 -23.449219 35.59375 -23.449219 35.667969 -23.449219 C 35.667969 -23.527344 35.667969 -23.527344 35.746094 -23.527344 C 35.820312 -23.527344 35.820312 -23.527344 35.820312 -23.449219 C 35.820312 -23.375 35.820312 -23.375 35.746094 -23.375 Z M 35.667969 -23.449219 C 35.667969 -23.375 35.667969 -23.375 35.746094 -23.375 C 35.746094 -23.449219 35.746094 -23.449219 35.667969 -23.449219 Z M 45.761719 -20.644531 L 45.761719 -21.097656 L 45.839844 -20.945312 L 45.839844 -21.628906 C 45.914062 -21.628906 45.914062 -21.707031 45.914062 -21.78125 L 45.914062 -22.007812 C 45.839844 -22.085938 45.839844 -22.160156 45.839844 -22.238281 L 45.914062 -22.085938 L 46.144531 -23.300781 L 46.144531 -22.3125 L 46.066406 -22.238281 L 46.066406 -22.160156 L 46.144531 -22.085938 C 45.839844 -22.085938 45.914062 -20.1875 45.914062 -19.960938 L 45.6875 -20.035156 C 45.761719 -20.1875 45.761719 -20.414062 45.761719 -20.644531 Z M 11.914062 -23.070312 C 11.914062 -23.148438 11.914062 -23.222656 11.992188 -23.148438 L 11.992188 -22.917969 C 11.914062 -22.917969 11.914062 -22.996094 11.914062 -23.070312 Z M 35.441406 -23.070312 L 35.441406 -23.148438 L 35.59375 -23.148438 Z M 13.28125 -22.996094 C 13.128906 -22.996094 13.054688 -22.996094 12.976562 -23.070312 C 13.128906 -23.070312 13.207031 -23.070312 13.28125 -22.996094 Z M 45.914062 -23.070312 C 45.992188 -23.070312 45.992188 -23.070312 45.992188 -22.996094 C 45.992188 -22.917969 45.992188 -22.917969 45.914062 -22.917969 C 45.839844 -22.917969 45.839844 -22.917969 45.839844 -22.996094 C 45.839844 -23.070312 45.839844 -23.070312 45.914062 -23.070312 Z M 35.441406 -22.691406 C 35.367188 -22.691406 35.367188 -22.691406 35.367188 -22.769531 C 35.367188 -22.84375 35.367188 -22.84375 35.441406 -22.84375 Z M 11.839844 -22.238281 L 11.839844 -22.386719 C 11.839844 -22.464844 11.839844 -22.617188 11.992188 -22.617188 L 11.992188 -22.539062 C 11.992188 -22.386719 11.914062 -22.3125 11.839844 -22.238281 Z M 35.367188 -22.464844 C 35.289062 -22.464844 35.289062 -22.464844 35.289062 -22.539062 L 35.367188 -22.539062 Z M 35.289062 -22.238281 L 35.214844 -22.238281 L 35.214844 -22.3125 L 35.289062 -22.3125 Z M 11.761719 -22.085938 C 11.761719 -22.160156 11.761719 -22.160156 11.839844 -22.160156 C 11.914062 -22.160156 11.914062 -22.160156 11.914062 -22.085938 C 11.914062 -22.007812 11.914062 -22.007812 11.839844 -22.007812 C 11.761719 -22.007812 11.761719 -22.007812 11.761719 -22.085938 Z M 35.136719 -22.007812 C 35.0625 -22.007812 35.0625 -22.007812 35.0625 -22.085938 L 35.136719 -22.085938 Z M 11.914062 -22.007812 C 11.992188 -22.007812 11.992188 -22.007812 11.992188 -21.933594 C 11.992188 -21.855469 11.992188 -21.855469 11.914062 -21.855469 C 11.839844 -21.855469 11.839844 -21.855469 11.839844 -21.933594 C 11.839844 -22.007812 11.839844 -22.007812 11.914062 -22.007812 Z M 35.0625 -21.855469 C 34.988281 -21.855469 34.988281 -21.855469 34.988281 -21.933594 C 34.988281 -22.007812 34.988281 -22.007812 35.0625 -22.007812 C 35.136719 -22.007812 35.136719 -22.007812 35.136719 -21.933594 C 35.136719 -21.855469 35.136719 -21.855469 35.0625 -21.855469 Z M 11.761719 -21.78125 C 11.761719 -21.855469 11.761719 -21.855469 11.839844 -21.855469 L 11.839844 -21.78125 Z M 34.910156 -21.707031 C 34.835938 -21.707031 34.835938 -21.707031 34.835938 -21.78125 C 34.835938 -21.855469 34.835938 -21.855469 34.910156 -21.855469 C 34.988281 -21.855469 34.988281 -21.855469 34.988281 -21.78125 C 34.988281 -21.707031 34.988281 -21.707031 34.910156 -21.707031 Z M 11.839844 -21.628906 C 11.839844 -21.554688 11.839844 -21.554688 11.761719 -21.554688 C 11.6875 -21.554688 11.6875 -21.554688 11.6875 -21.628906 C 11.6875 -21.707031 11.6875 -21.707031 11.761719 -21.707031 C 11.839844 -21.707031 11.839844 -21.707031 11.839844 -21.628906 Z M 11.6875 -21.554688 C 11.6875 -21.476562 11.6875 -21.476562 11.613281 -21.476562 C 11.535156 -21.476562 11.535156 -21.476562 11.535156 -21.554688 C 11.535156 -21.628906 11.535156 -21.628906 11.613281 -21.628906 C 11.6875 -21.628906 11.6875 -21.628906 11.6875 -21.554688 Z M 34.910156 -21.476562 C 34.835938 -21.476562 34.835938 -21.476562 34.835938 -21.554688 C 34.835938 -21.628906 34.835938 -21.628906 34.910156 -21.628906 C 34.988281 -21.628906 34.988281 -21.628906 34.988281 -21.554688 C 34.988281 -21.476562 34.988281 -21.476562 34.910156 -21.476562 Z M 11.460938 -21.097656 C 11.460938 -21.25 11.535156 -21.402344 11.761719 -21.476562 L 11.839844 -21.402344 C 12.066406 -21.175781 11.535156 -21.097656 11.460938 -21.097656 Z M 34.835938 -21.25 C 34.757812 -21.25 34.757812 -21.25 34.757812 -21.324219 L 34.835938 -21.324219 Z M 34.683594 -20.945312 C 34.605469 -20.945312 34.605469 -20.945312 34.605469 -21.023438 C 34.605469 -21.097656 34.605469 -21.097656 34.683594 -21.097656 C 34.757812 -21.097656 34.757812 -21.097656 34.757812 -21.023438 C 34.757812 -20.945312 34.757812 -20.945312 34.683594 -20.945312 Z M 34.53125 -20.871094 C 34.457031 -20.871094 34.457031 -20.871094 34.457031 -20.945312 C 34.457031 -21.023438 34.457031 -21.023438 34.53125 -21.023438 C 34.605469 -21.023438 34.605469 -21.023438 34.605469 -20.945312 C 34.605469 -20.871094 34.605469 -20.871094 34.53125 -20.871094 Z M 11.535156 -20.71875 C 11.535156 -20.792969 11.535156 -20.792969 11.613281 -20.792969 L 11.613281 -20.644531 C 11.535156 -20.644531 11.535156 -20.644531 11.535156 -20.71875 Z M 34.457031 -20.71875 C 34.457031 -20.644531 34.457031 -20.644531 34.378906 -20.644531 C 34.304688 -20.644531 34.304688 -20.644531 34.304688 -20.71875 C 34.304688 -20.792969 34.304688 -20.792969 34.378906 -20.792969 C 34.457031 -20.792969 34.457031 -20.792969 34.457031 -20.71875 Z M 34.53125 -20.492188 L 34.457031 -20.492188 C 34.457031 -20.566406 34.457031 -20.566406 34.53125 -20.566406 Z M 34.378906 -20.113281 C 34.304688 -20.113281 34.304688 -20.113281 34.304688 -20.1875 C 34.304688 -20.261719 34.304688 -20.261719 34.378906 -20.261719 C 34.457031 -20.261719 34.457031 -20.261719 34.457031 -20.1875 C 34.457031 -20.113281 34.457031 -20.113281 34.378906 -20.113281 Z M 11.308594 -19.351562 C 11.308594 -19.429688 11.308594 -19.503906 11.382812 -19.582031 L 11.382812 -19.808594 C 11.382812 -19.882812 11.382812 -19.960938 11.460938 -19.960938 L 11.460938 -20.113281 L 11.535156 -20.113281 L 11.535156 -19.351562 Z M 45.761719 -19.960938 C 45.839844 -19.960938 45.839844 -19.960938 45.839844 -19.882812 C 45.839844 -19.808594 45.839844 -19.808594 45.761719 -19.808594 C 45.6875 -19.808594 45.6875 -19.808594 45.6875 -19.882812 C 45.6875 -19.960938 45.6875 -19.960938 45.761719 -19.960938 Z M 45.6875 -19.808594 C 45.761719 -19.730469 45.839844 -19.65625 45.839844 -19.503906 L 45.839844 -19.125 L 45.761719 -18.820312 L 45.6875 -18.820312 Z M 33.925781 -19.125 C 33.847656 -19.125 33.847656 -19.125 33.847656 -19.199219 C 33.847656 -19.277344 33.847656 -19.277344 33.925781 -19.277344 C 34 -19.277344 34 -19.277344 34 -19.199219 C 34 -19.125 34 -19.125 33.925781 -19.125 Z M 11.382812 -19.125 L 11.382812 -18.898438 C 11.308594 -18.898438 11.308594 -18.972656 11.308594 -19.050781 C 11.308594 -19.125 11.308594 -19.199219 11.382812 -19.125 Z M 11.308594 -18.820312 L 11.308594 -18.746094 C 11.230469 -18.746094 11.230469 -18.746094 11.230469 -18.820312 Z M 33.695312 -18.746094 C 33.621094 -18.746094 33.621094 -18.746094 33.621094 -18.820312 L 33.695312 -18.820312 Z M 11.382812 -18.667969 C 11.382812 -18.746094 11.382812 -18.746094 11.460938 -18.746094 C 11.535156 -18.746094 11.535156 -18.746094 11.535156 -18.667969 C 11.535156 -18.59375 11.535156 -18.59375 11.460938 -18.59375 C 11.382812 -18.59375 11.382812 -18.59375 11.382812 -18.667969 Z M 45.613281 -17.457031 L 45.613281 -18.59375 C 45.613281 -18.667969 45.6875 -18.667969 45.761719 -18.667969 L 45.761719 -16.773438 L 45.839844 -16.621094 L 45.6875 -16.695312 C 45.6875 -16.621094 45.6875 -16.46875 45.761719 -16.394531 L 45.761719 -16.089844 C 45.613281 -16.089844 45.535156 -16.164062 45.535156 -16.316406 C 45.535156 -16.695312 45.535156 -17.074219 45.613281 -17.457031 Z M 11.230469 -18.367188 L 11.230469 -18.519531 L 11.382812 -18.519531 Z M 11.230469 -17.457031 L 11.308594 -17.304688 C 11.308594 -17.226562 11.308594 -17.152344 11.230469 -17 C 11.15625 -16.847656 11.15625 -16.773438 11.15625 -16.695312 L 11.082031 -16.773438 L 11.082031 -17.53125 C 11.15625 -17.605469 11.230469 -17.683594 11.15625 -17.910156 C 11.082031 -18.0625 11.15625 -18.136719 11.230469 -18.136719 C 11.308594 -18.136719 11.382812 -18.0625 11.382812 -17.988281 C 11.382812 -17.757812 11.308594 -17.53125 11.230469 -17.457031 Z M 33.394531 -18.0625 C 33.316406 -18.0625 33.316406 -18.0625 33.316406 -18.136719 L 33.394531 -18.136719 Z M 33.011719 -17.457031 C 32.9375 -17.457031 32.9375 -17.457031 32.9375 -17.53125 L 33.011719 -17.53125 Z M 33.011719 -17.074219 C 32.9375 -17.074219 32.9375 -17.074219 32.9375 -17.152344 C 32.9375 -17.226562 32.9375 -17.226562 33.011719 -17.226562 Z M 32.863281 -16.773438 L 32.785156 -16.773438 C 32.785156 -16.847656 32.785156 -16.847656 32.863281 -16.847656 Z M 11.15625 -15.785156 C 11.082031 -15.785156 11.003906 -15.863281 11.003906 -15.9375 C 11.003906 -16.011719 11.003906 -16.164062 11.003906 -16.242188 L 11.003906 -16.46875 C 10.929688 -16.542969 11.003906 -16.542969 11.082031 -16.621094 L 11.15625 -16.46875 Z M 32.480469 -16.242188 C 32.40625 -16.242188 32.40625 -16.242188 32.40625 -16.316406 L 32.480469 -16.316406 Z M 45.460938 -14.875 C 45.460938 -15.027344 45.460938 -15.179688 45.535156 -15.332031 L 45.535156 -15.710938 C 45.535156 -15.863281 45.535156 -15.9375 45.460938 -16.011719 C 45.6875 -16.011719 45.761719 -15.9375 45.761719 -15.785156 C 45.761719 -15.710938 45.761719 -15.632812 45.6875 -15.40625 C 45.613281 -15.179688 45.613281 -15.101562 45.613281 -15.027344 C 45.613281 -15.027344 45.613281 -14.949219 45.6875 -14.875 L 45.6875 -14.722656 L 45.613281 -14.648438 L 45.613281 -13.433594 L 45.535156 -13.433594 C 45.460938 -13.738281 45.460938 -13.964844 45.460938 -14.191406 Z M 11.082031 -15.480469 C 11.082031 -15.40625 11.082031 -15.40625 11.003906 -15.40625 C 10.929688 -15.40625 10.929688 -15.40625 10.929688 -15.480469 C 10.929688 -15.558594 10.929688 -15.558594 11.003906 -15.558594 C 11.003906 -15.632812 11.003906 -15.632812 11.082031 -15.632812 C 11.15625 -15.632812 11.15625 -15.632812 11.15625 -15.558594 C 11.15625 -15.480469 11.15625 -15.480469 11.082031 -15.480469 Z M 11.003906 -15.558594 C 11.003906 -15.480469 11.003906 -15.480469 11.082031 -15.480469 C 11.082031 -15.558594 11.082031 -15.558594 11.003906 -15.558594 Z M 11.082031 -15.027344 C 11.082031 -14.800781 11.082031 -14.570312 11.003906 -14.34375 C 11.003906 -14.34375 11.003906 -14.417969 10.929688 -14.496094 L 10.851562 -14.570312 L 10.929688 -14.800781 C 10.929688 -14.875 10.929688 -15.027344 11.082031 -15.179688 Z M 10.929688 -13.585938 L 10.929688 -14.191406 L 11.003906 -14.117188 C 11.082031 -14.039062 11.082031 -14.039062 11.082031 -13.886719 C 11.003906 -13.8125 11.003906 -13.8125 11.003906 -13.738281 L 11.003906 -13.585938 Z M 11.003906 -13.433594 L 11.003906 -13.128906 L 10.929688 -13.207031 L 10.929688 -13.28125 C 10.929688 -13.433594 10.929688 -13.433594 11.003906 -13.433594 Z M 10.929688 -13.054688 L 10.929688 -12.75 L 10.851562 -12.824219 L 10.851562 -12.902344 C 10.851562 -13.054688 10.851562 -13.054688 10.929688 -13.054688 Z M 45.308594 -12.824219 C 45.308594 -12.902344 45.308594 -12.902344 45.382812 -12.902344 C 45.460938 -12.902344 45.460938 -12.902344 45.460938 -12.824219 L 45.460938 -12.976562 L 45.535156 -13.054688 C 45.535156 -12.902344 45.535156 -12.75 45.613281 -12.675781 L 45.613281 -12.21875 L 45.460938 -12.292969 L 45.460938 -12.824219 C 45.460938 -12.75 45.460938 -12.75 45.382812 -12.75 C 45.308594 -12.75 45.308594 -12.75 45.308594 -12.824219 Z M 11.003906 -12.597656 L 11.082031 -12.597656 L 11.082031 -12.371094 C 11.003906 -12.292969 11.003906 -12.292969 11.003906 -12.21875 Z M 45.535156 -12.144531 L 45.535156 -11.914062 L 45.382812 -11.992188 Z M 10.851562 -11.230469 C 10.777344 -11.230469 10.777344 -11.230469 10.777344 -11.308594 C 10.777344 -11.382812 10.777344 -11.382812 10.851562 -11.382812 L 10.929688 -11.382812 C 10.851562 -11.460938 10.851562 -11.460938 10.851562 -11.535156 C 10.777344 -11.535156 10.777344 -11.535156 10.777344 -11.613281 C 10.777344 -11.6875 10.777344 -11.6875 10.851562 -11.6875 L 10.851562 -12.066406 C 11.003906 -12.066406 11.082031 -11.992188 11.082031 -11.839844 L 11.082031 -11.535156 C 11.003906 -11.382812 11.003906 -11.308594 11.003906 -11.230469 C 11.003906 -11.230469 10.929688 -11.308594 10.929688 -11.308594 C 10.929688 -11.230469 10.929688 -11.230469 10.851562 -11.230469 Z M 45.761719 -10.320312 C 45.6875 -10.320312 45.6875 -10.320312 45.535156 -10.472656 L 45.460938 -11.535156 C 45.460938 -11.6875 45.460938 -11.761719 45.535156 -11.761719 C 45.535156 -11.535156 45.613281 -11.308594 45.6875 -11.082031 C 45.761719 -10.851562 45.761719 -10.550781 45.761719 -10.320312 Z M 10.929688 -11.613281 C 10.929688 -11.6875 10.929688 -11.6875 10.851562 -11.6875 L 10.851562 -11.535156 C 10.929688 -11.535156 10.929688 -11.535156 10.929688 -11.613281 Z M 10.929688 -11.382812 C 10.929688 -11.382812 10.929688 -11.382812 10.929688 -11.308594 Z M 10.929688 -11.082031 L 11.003906 -11.082031 L 11.003906 -11.003906 C 10.929688 -11.003906 10.929688 -11.003906 10.929688 -11.082031 Z M 11.082031 -10.625 C 11.003906 -10.625 11.003906 -10.625 11.003906 -10.699219 C 11.003906 -10.777344 11.003906 -10.777344 11.082031 -10.777344 Z M 11.003906 -10.398438 L 11.082031 -10.398438 L 11.082031 -10.320312 C 11.003906 -10.320312 11.003906 -10.320312 11.003906 -10.398438 Z M 45.613281 -10.019531 L 45.6875 -9.867188 L 45.6875 -9.714844 L 45.761719 -9.5625 L 45.761719 -9.335938 L 45.6875 -9.183594 L 45.6875 -9.105469 C 45.613281 -9.03125 45.613281 -9.03125 45.613281 -8.957031 L 45.613281 -9.257812 C 45.535156 -9.410156 45.535156 -9.488281 45.535156 -9.5625 L 45.460938 -9.714844 C 45.460938 -9.941406 45.535156 -10.019531 45.613281 -10.019531 Z M 11.15625 -9.714844 C 11.082031 -9.714844 11.082031 -9.714844 11.082031 -9.789062 L 11.15625 -9.789062 Z M 11.308594 -8.726562 C 11.230469 -8.726562 11.230469 -8.726562 11.230469 -8.804688 C 11.230469 -8.878906 11.230469 -8.878906 11.308594 -8.878906 C 11.382812 -8.878906 11.382812 -8.878906 11.382812 -8.804688 C 11.382812 -8.726562 11.382812 -8.726562 11.308594 -8.726562 Z M 45.6875 -8.726562 L 45.6875 -8.273438 C 45.613281 -8.347656 45.613281 -8.5 45.613281 -8.574219 Z M 45.914062 -8.347656 C 45.914062 -8.273438 45.914062 -8.273438 45.839844 -8.273438 C 45.761719 -8.273438 45.761719 -8.273438 45.761719 -8.347656 C 45.761719 -8.425781 45.761719 -8.425781 45.839844 -8.425781 C 45.914062 -8.425781 45.914062 -8.425781 45.914062 -8.347656 Z M 11.382812 -8.195312 C 11.308594 -8.195312 11.308594 -8.195312 11.308594 -8.273438 L 11.382812 -8.273438 Z M 11.460938 -7.96875 C 11.535156 -7.96875 11.535156 -7.894531 11.535156 -7.816406 C 11.460938 -7.816406 11.460938 -7.894531 11.460938 -7.96875 Z M 45.914062 -7.210938 C 45.914062 -7.058594 45.914062 -6.980469 45.839844 -6.90625 L 45.761719 -6.980469 L 45.6875 -7.894531 C 45.914062 -7.894531 45.914062 -7.4375 45.914062 -7.210938 Z M 11.535156 -7.285156 C 11.535156 -7.363281 11.535156 -7.363281 11.613281 -7.363281 L 11.613281 -7.210938 C 11.535156 -7.210938 11.535156 -7.210938 11.535156 -7.285156 Z M 11.6875 -6.980469 C 11.613281 -6.980469 11.613281 -6.980469 11.613281 -7.058594 C 11.613281 -7.132812 11.613281 -7.132812 11.6875 -7.132812 C 11.761719 -7.132812 11.761719 -7.132812 11.761719 -7.058594 C 11.761719 -6.980469 11.761719 -6.980469 11.6875 -6.980469 Z M 45.839844 -6.753906 L 45.839844 -6.601562 C 45.761719 -6.601562 45.761719 -6.601562 45.761719 -6.679688 C 45.761719 -6.753906 45.761719 -6.753906 45.839844 -6.753906 Z M 45.914062 -6.449219 L 45.992188 -6.527344 C 45.914062 -6.300781 45.914062 -6.148438 45.992188 -6.070312 C 46.066406 -5.996094 46.066406 -5.84375 46.066406 -5.617188 L 46.066406 -5.464844 C 46.066406 -5.386719 46.066406 -5.3125 45.992188 -5.3125 C 45.761719 -5.539062 45.761719 -6.148438 45.761719 -6.375 C 45.761719 -6.449219 45.839844 -6.449219 45.914062 -6.449219 Z M 12.066406 -6.222656 C 11.992188 -6.222656 11.992188 -6.222656 11.992188 -6.300781 L 11.992188 -6.148438 C 11.914062 -6.148438 11.914062 -6.222656 11.914062 -6.375 L 11.992188 -6.300781 C 11.992188 -6.375 11.992188 -6.375 12.066406 -6.375 C 12.144531 -6.375 12.144531 -6.375 12.144531 -6.300781 C 12.144531 -6.222656 12.144531 -6.222656 12.066406 -6.222656 Z M 12.066406 -5.917969 C 11.992188 -5.917969 11.992188 -5.917969 11.992188 -5.996094 L 12.066406 -5.996094 Z M 45.613281 -5.769531 C 45.535156 -5.769531 45.535156 -5.769531 45.535156 -5.84375 L 45.613281 -5.84375 Z M 12.21875 -5.464844 C 12.144531 -5.464844 12.144531 -5.464844 12.144531 -5.539062 C 12.144531 -5.617188 12.144531 -5.617188 12.21875 -5.617188 C 12.292969 -5.617188 12.292969 -5.617188 12.292969 -5.539062 C 12.292969 -5.464844 12.292969 -5.464844 12.21875 -5.464844 Z M 12.371094 -5.085938 C 12.292969 -5.085938 12.292969 -5.085938 12.292969 -5.160156 L 12.371094 -5.160156 Z M 45.914062 -5.160156 L 46.066406 -5.160156 L 46.066406 -5.007812 C 45.992188 -5.007812 45.914062 -5.085938 45.914062 -5.160156 Z M 12.523438 -4.933594 L 12.675781 -4.628906 C 12.597656 -4.707031 12.523438 -4.78125 12.523438 -4.933594 Z M 46.21875 -3.113281 C 46.21875 -3.339844 46.21875 -4.628906 45.992188 -4.855469 C 46.292969 -4.855469 46.902344 -1.0625 46.902344 -0.835938 C 46.445312 -0.835938 46.597656 -2.882812 46.21875 -3.113281 Z M 15.40625 -0.683594 C 15.332031 -0.683594 15.332031 -0.683594 15.332031 -0.757812 C 15.332031 -0.835938 15.332031 -0.835938 15.40625 -0.835938 C 15.480469 -0.835938 15.480469 -0.835938 15.480469 -0.757812 C 15.480469 -0.683594 15.480469 -0.683594 15.40625 -0.683594 Z M 15.558594 -0.605469 C 15.480469 -0.605469 15.480469 -0.605469 15.480469 -0.683594 C 15.480469 -0.757812 15.480469 -0.757812 15.558594 -0.757812 C 15.632812 -0.757812 15.632812 -0.757812 15.632812 -0.683594 C 15.632812 -0.605469 15.632812 -0.605469 15.558594 -0.605469 Z M 46.976562 -0.757812 C 47.054688 -0.757812 47.054688 -0.757812 47.054688 -0.683594 C 47.054688 -0.605469 47.054688 -0.605469 46.976562 -0.605469 C 46.902344 -0.605469 46.902344 -0.605469 46.902344 -0.683594 C 46.902344 -0.757812 46.902344 -0.757812 46.976562 -0.757812 Z M 15.710938 -0.605469 C 16.011719 -0.605469 16.773438 -0.378906 17 -0.304688 C 16.46875 -0.304688 16.089844 -0.304688 15.710938 -0.605469 Z M 46.976562 -0.378906 L 46.976562 -0.53125 L 47.128906 -0.457031 C 47.128906 -0.226562 47.128906 0 47.128906 0.226562 C 47.054688 0 46.976562 -0.152344 46.976562 -0.378906 Z M 46.902344 0.152344 C 46.902344 0.0742188 46.902344 0.0742188 46.976562 0.0742188 C 47.054688 0.0742188 47.054688 0.0742188 47.054688 0.152344 C 47.054688 0.226562 47.054688 0.226562 46.976562 0.226562 C 46.902344 0.226562 46.902344 0.226562 46.902344 0.152344 Z M 47.054688 0.53125 C 46.976562 0.53125 46.976562 0.53125 46.976562 0.457031 C 46.976562 0.378906 46.976562 0.378906 47.054688 0.378906 C 47.128906 0.378906 47.128906 0.378906 47.128906 0.457031 C 47.128906 0.53125 47.128906 0.53125 47.054688 0.53125 Z M 47.964844 2.730469 C 47.738281 2.429688 47.207031 1.289062 47.207031 0.988281 L 47.28125 0.835938 C 47.28125 0.757812 47.28125 0.683594 47.28125 0.605469 L 47.507812 1.0625 C 47.8125 1.59375 47.964844 2.050781 47.964844 2.582031 Z M 48.117188 2.960938 C 48.191406 3.1875 48.34375 3.339844 48.34375 3.566406 C 48.191406 3.414062 48.117188 3.1875 48.117188 2.960938 Z M 48.417969 3.71875 C 48.800781 3.945312 48.949219 4.324219 48.949219 4.707031 C 48.722656 4.476562 48.496094 4.175781 48.417969 3.71875 Z M 49.027344 4.855469 L 49.101562 4.855469 L 49.027344 4.933594 Z M 49.179688 5.085938 C 49.101562 5.085938 49.101562 5.085938 49.101562 5.007812 C 49.101562 4.933594 49.101562 4.933594 49.179688 4.933594 C 49.253906 4.933594 49.253906 4.933594 49.253906 5.007812 C 49.253906 5.085938 49.253906 5.085938 49.179688 5.085938 Z M 49.480469 5.386719 C 49.480469 5.3125 49.480469 5.3125 49.558594 5.3125 C 49.632812 5.3125 49.632812 5.3125 49.632812 5.386719 C 49.632812 5.464844 49.632812 5.464844 49.558594 5.464844 C 49.480469 5.464844 49.480469 5.464844 49.480469 5.386719 Z M 49.480469 5.539062 L 49.40625 5.539062 C 49.40625 5.464844 49.40625 5.464844 49.480469 5.464844 Z M 49.710938 5.917969 L 49.632812 5.84375 L 49.558594 5.769531 C 49.558594 5.691406 49.558594 5.617188 49.632812 5.617188 C 49.632812 5.691406 49.632812 5.691406 49.710938 5.691406 Z M 50.011719 6.222656 C 49.9375 6.222656 49.9375 6.222656 49.9375 6.148438 C 49.9375 6.070312 49.9375 6.070312 50.011719 6.070312 C 50.089844 6.070312 50.089844 6.070312 50.089844 6.148438 C 50.089844 6.222656 50.089844 6.222656 50.011719 6.222656 Z M 50.089844 6.375 L 50.089844 6.300781 L 50.164062 6.375 Z M 55.25 6.601562 L 55.175781 6.601562 C 55.175781 6.527344 55.175781 6.527344 55.25 6.527344 Z M 55.175781 6.832031 C 55.097656 6.832031 55.097656 6.832031 55.097656 6.753906 C 55.097656 6.679688 55.097656 6.679688 55.175781 6.679688 C 55.25 6.679688 55.25 6.679688 55.25 6.753906 C 55.25 6.832031 55.25 6.832031 55.175781 6.832031 Z M 52.59375 8.5 C 52.820312 8.425781 52.972656 8.425781 53.050781 8.425781 L 53.125 8.5 Z M 53.429688 8.574219 C 53.351562 8.574219 53.351562 8.574219 53.351562 8.5 C 53.351562 8.425781 53.351562 8.425781 53.429688 8.425781 C 53.503906 8.425781 53.503906 8.425781 53.503906 8.5 C 53.503906 8.574219 53.503906 8.574219 53.429688 8.574219 Z M 53.429688 8.574219 "/></g></g></g><g fill="#000000" fill-opacity="1"><g transform="translate(161.875924, 60.839694)"><g><path d="M 19.65625 -18.519531 C 19.429688 -18.441406 19.351562 -18.367188 19.125 -18.367188 C 18.820312 -18.367188 18.667969 -18.519531 18.667969 -18.820312 L 18.746094 -18.972656 C 18.746094 -19.050781 18.667969 -19.125 18.519531 -19.125 L 18.367188 -19.125 C 17.835938 -18.820312 17.304688 -18.519531 16.847656 -18.0625 L 12.824219 -13.8125 L 12.445312 -13.28125 C 12.21875 -13.054688 12.066406 -12.824219 11.839844 -12.675781 C 11.613281 -14.722656 10.851562 -17.074219 8.425781 -17.074219 C 6.070312 -17.074219 3.566406 -15.710938 1.519531 -14.570312 L 1.367188 -14.570312 L 2.582031 -18.367188 C 3.71875 -21.628906 5.691406 -24.894531 7.742188 -27.625 C 7.816406 -27.699219 7.894531 -27.929688 7.894531 -28.15625 C 7.894531 -28.308594 7.816406 -28.382812 7.742188 -28.460938 C 7.742188 -28.382812 7.664062 -28.308594 7.4375 -28.308594 C 7.210938 -28.308594 7.058594 -28.460938 6.980469 -28.761719 C 6.980469 -28.992188 6.753906 -29.066406 6.527344 -29.066406 C 3.71875 -29.066406 -0.910156 -15.863281 -0.910156 -14.039062 C -0.910156 -13.507812 -0.757812 -12.445312 0.0742188 -12.445312 L 1.898438 -12.445312 L 5.996094 -14.570312 C 6.679688 -14.949219 7.96875 -15.332031 8.726562 -15.480469 L 8.957031 -15.480469 C 9.867188 -15.480469 9.867188 -13.207031 9.867188 -12.445312 L 9.867188 -11.613281 C 9.867188 -11.382812 9.867188 -11.082031 9.789062 -10.851562 C 9.789062 -10.550781 9.789062 -10.246094 9.714844 -9.941406 L 9.636719 -9.789062 C 6.148438 -5.007812 0.457031 2.199219 0.457031 8.5 C 0.457031 9.335938 0.683594 10.550781 1.820312 10.550781 C 8.121094 10.550781 11.082031 -4.78125 11.613281 -9.5625 L 13.886719 -12.21875 L 19.730469 -18.136719 L 19.730469 -18.289062 C 19.730469 -18.441406 19.730469 -18.519531 19.65625 -18.519531 Z M 1.441406 -17.910156 C 1.519531 -17.910156 1.519531 -17.910156 1.519531 -17.835938 C 1.519531 -17.757812 1.519531 -17.757812 1.441406 -17.757812 C 1.367188 -17.757812 1.367188 -17.757812 1.367188 -17.835938 C 1.367188 -17.910156 1.367188 -17.910156 1.441406 -17.910156 Z M 0.457031 -14.722656 C 0.378906 -14.722656 0.378906 -14.722656 0.378906 -14.800781 C 0.378906 -14.875 0.378906 -14.875 0.457031 -14.875 C 0.53125 -14.875 0.53125 -14.875 0.53125 -14.800781 C 0.53125 -14.722656 0.53125 -14.722656 0.457031 -14.722656 Z M 10.929688 -13.507812 L 11.003906 -13.507812 C 11.003906 -13.433594 11.003906 -13.433594 10.929688 -13.433594 Z M 11.082031 -12.371094 C 11.082031 -12.292969 11.082031 -12.292969 11.003906 -12.292969 C 10.929688 -12.292969 10.929688 -12.292969 10.929688 -12.371094 C 10.929688 -12.445312 10.929688 -12.445312 11.003906 -12.445312 C 10.929688 -12.445312 10.929688 -12.445312 10.929688 -12.523438 C 10.929688 -12.597656 10.929688 -12.597656 11.003906 -12.597656 C 11.082031 -12.597656 11.082031 -12.597656 11.082031 -12.523438 C 11.082031 -12.445312 11.082031 -12.445312 11.003906 -12.445312 C 11.082031 -12.445312 11.082031 -12.445312 11.082031 -12.371094 Z M 11.003906 -11.6875 L 11.003906 -11.761719 L 11.082031 -11.761719 C 11.082031 -11.6875 11.082031 -11.6875 11.003906 -11.6875 Z M 12.144531 -11.15625 C 12.066406 -11.15625 12.066406 -11.15625 12.066406 -11.230469 C 12.066406 -11.308594 12.066406 -11.308594 12.144531 -11.308594 C 12.21875 -11.308594 12.21875 -11.308594 12.21875 -11.230469 C 12.21875 -11.15625 12.21875 -11.15625 12.144531 -11.15625 Z M 11.914062 -10.851562 C 11.839844 -10.851562 11.839844 -10.851562 11.839844 -10.929688 C 11.839844 -11.003906 11.839844 -11.003906 11.914062 -11.003906 C 11.992188 -11.003906 11.992188 -11.003906 11.992188 -10.929688 C 11.992188 -10.851562 11.992188 -10.851562 11.914062 -10.851562 Z M 10.625 -8.042969 L 10.625 -8.195312 C 10.699219 -8.195312 10.699219 -8.195312 10.699219 -8.121094 C 10.699219 -8.042969 10.699219 -8.042969 10.625 -8.042969 Z M 10.625 -7.589844 C 10.625 -7.4375 10.625 -7.285156 10.550781 -7.210938 C 10.550781 -7.132812 10.550781 -6.980469 10.472656 -6.832031 L 10.398438 -6.753906 L 10.398438 -6.980469 C 10.398438 -7.132812 10.398438 -7.285156 10.472656 -7.4375 C 10.550781 -7.511719 10.550781 -7.664062 10.550781 -7.894531 L 10.625 -7.894531 Z M 9.335938 -7.664062 L 9.410156 -7.664062 C 9.410156 -7.589844 9.410156 -7.589844 9.335938 -7.589844 Z M 9.03125 -7.589844 C 9.105469 -7.589844 9.105469 -7.589844 9.105469 -7.511719 C 9.105469 -7.4375 9.105469 -7.4375 9.03125 -7.4375 C 8.957031 -7.4375 8.957031 -7.4375 8.957031 -7.511719 C 8.957031 -7.589844 8.957031 -7.589844 9.03125 -7.589844 Z M 8.425781 -6.679688 C 8.5 -6.679688 8.5 -6.679688 8.5 -6.601562 C 8.5 -6.527344 8.5 -6.527344 8.425781 -6.527344 C 8.347656 -6.527344 8.347656 -6.527344 8.347656 -6.601562 C 8.347656 -6.679688 8.347656 -6.679688 8.425781 -6.679688 Z M 1.972656 9.488281 C 1.746094 9.488281 1.59375 9.335938 1.59375 9.105469 C 1.59375 8.042969 1.746094 6.980469 2.050781 5.917969 C 1.59375 6.980469 1.0625 7.816406 1.214844 9.410156 C 1.0625 9.335938 0.988281 9.105469 1.0625 8.878906 C 1.136719 8.652344 1.0625 8.425781 0.835938 8.347656 C 0.910156 8.273438 0.988281 8.273438 1.0625 8.273438 C 1.0625 7.058594 1.746094 4.097656 2.582031 3.492188 C 2.582031 3.945312 2.503906 4.324219 2.429688 4.707031 C 3.261719 2.582031 4.476562 0.53125 5.691406 -1.367188 C 6.148438 -2.199219 8.5 -5.769531 9.03125 -6.300781 L 9.257812 -6.527344 L 9.257812 -6.449219 C 9.257812 -3.71875 5.085938 9.488281 1.972656 9.488281 Z M 8.273438 -6.375 C 8.347656 -6.375 8.347656 -6.375 8.347656 -6.300781 C 8.347656 -6.222656 8.347656 -6.222656 8.273438 -6.222656 C 8.195312 -6.222656 8.195312 -6.222656 8.195312 -6.300781 C 8.195312 -6.375 8.195312 -6.375 8.273438 -6.375 Z M 10.398438 -6.148438 C 10.398438 -6.070312 10.398438 -6.070312 10.320312 -6.070312 C 10.246094 -6.070312 10.246094 -6.070312 10.246094 -6.148438 C 10.246094 -6.222656 10.246094 -6.222656 10.320312 -6.222656 C 10.246094 -6.222656 10.246094 -6.222656 10.246094 -6.300781 C 10.246094 -6.375 10.246094 -6.375 10.320312 -6.375 C 10.398438 -6.375 10.398438 -6.375 10.398438 -6.300781 C 10.398438 -6.222656 10.398438 -6.222656 10.320312 -6.222656 C 10.398438 -6.222656 10.398438 -6.222656 10.398438 -6.148438 Z M 10.246094 -5.84375 L 10.246094 -5.917969 L 10.320312 -5.917969 C 10.320312 -5.84375 10.320312 -5.84375 10.246094 -5.84375 Z M 7.894531 -5.769531 C 7.96875 -5.769531 7.96875 -5.769531 7.96875 -5.691406 C 7.96875 -5.617188 7.96875 -5.617188 7.894531 -5.617188 C 7.816406 -5.617188 7.816406 -5.617188 7.816406 -5.691406 C 7.816406 -5.769531 7.816406 -5.769531 7.894531 -5.769531 Z M 7.742188 -5.539062 C 7.816406 -5.539062 7.816406 -5.539062 7.816406 -5.464844 C 7.816406 -5.386719 7.816406 -5.386719 7.742188 -5.386719 C 7.664062 -5.386719 7.664062 -5.386719 7.664062 -5.464844 C 7.664062 -5.539062 7.664062 -5.539062 7.742188 -5.539062 Z M 10.167969 -5.464844 L 10.167969 -5.539062 L 10.246094 -5.539062 C 10.246094 -5.464844 10.246094 -5.464844 10.167969 -5.464844 Z M 7.589844 -5.3125 C 7.589844 -5.386719 7.589844 -5.386719 7.664062 -5.386719 C 7.742188 -5.386719 7.742188 -5.386719 7.742188 -5.3125 C 7.742188 -5.238281 7.742188 -5.238281 7.664062 -5.238281 C 7.664062 -5.160156 7.664062 -5.160156 7.589844 -5.160156 C 7.511719 -5.160156 7.511719 -5.160156 7.511719 -5.238281 C 7.511719 -5.3125 7.511719 -5.3125 7.589844 -5.3125 Z M 7.664062 -5.238281 C 7.664062 -5.3125 7.664062 -5.3125 7.589844 -5.3125 C 7.589844 -5.238281 7.589844 -5.238281 7.664062 -5.238281 Z M 10.09375 -5.238281 L 10.09375 -5.3125 L 10.246094 -5.238281 Z M 7.511719 -5.160156 C 7.511719 -5.085938 7.511719 -5.085938 7.4375 -5.007812 Z M 10.09375 -4.933594 C 10.09375 -4.78125 10.019531 -4.707031 9.941406 -4.707031 L 10.09375 -5.085938 Z M 7.285156 -4.855469 C 7.363281 -4.855469 7.363281 -4.855469 7.363281 -4.78125 C 7.363281 -4.707031 7.363281 -4.707031 7.285156 -4.707031 C 7.210938 -4.707031 7.210938 -4.707031 7.210938 -4.78125 C 7.210938 -4.855469 7.210938 -4.855469 7.285156 -4.855469 Z M 7.210938 -4.707031 C 7.285156 -4.707031 7.285156 -4.707031 7.285156 -4.628906 C 7.285156 -4.554688 7.285156 -4.554688 7.210938 -4.554688 C 7.132812 -4.554688 7.132812 -4.554688 7.132812 -4.628906 C 7.132812 -4.707031 7.132812 -4.707031 7.210938 -4.707031 Z M 7.058594 -4.554688 C 7.132812 -4.554688 7.132812 -4.554688 7.132812 -4.476562 C 7.132812 -4.402344 7.132812 -4.402344 7.058594 -4.402344 C 6.980469 -4.402344 6.980469 -4.402344 6.980469 -4.476562 C 6.980469 -4.554688 6.980469 -4.554688 7.058594 -4.554688 Z M 10.019531 -4.402344 C 9.941406 -4.402344 9.941406 -4.402344 9.941406 -4.476562 C 9.941406 -4.554688 9.941406 -4.554688 10.019531 -4.554688 C 10.09375 -4.554688 10.09375 -4.554688 10.09375 -4.476562 C 10.09375 -4.402344 10.09375 -4.402344 10.019531 -4.402344 Z M 9.941406 -4.25 L 9.941406 -4.402344 C 10.019531 -4.402344 10.019531 -4.402344 10.019531 -4.324219 C 10.019531 -4.25 10.019531 -4.25 9.941406 -4.25 Z M 6.90625 -4.25 C 6.90625 -4.023438 6.832031 -3.945312 6.753906 -3.945312 C 6.753906 -4.023438 6.832031 -4.175781 6.90625 -4.25 Z M 9.867188 -3.945312 C 9.789062 -3.945312 9.789062 -3.945312 9.789062 -4.023438 C 9.789062 -4.097656 9.789062 -4.097656 9.867188 -4.097656 C 9.941406 -4.097656 9.941406 -4.097656 9.941406 -4.023438 C 9.941406 -3.945312 9.941406 -3.945312 9.867188 -3.945312 Z M 6.679688 -3.871094 C 6.679688 -3.792969 6.601562 -3.71875 6.527344 -3.71875 Z M 9.867188 -3.566406 L 9.789062 -3.566406 L 9.789062 -3.871094 L 9.867188 -3.871094 Z M 6.449219 -3.566406 C 6.527344 -3.566406 6.527344 -3.566406 6.527344 -3.492188 C 6.527344 -3.414062 6.527344 -3.414062 6.449219 -3.414062 C 6.375 -3.414062 6.375 -3.414062 6.375 -3.492188 C 6.375 -3.566406 6.375 -3.566406 6.449219 -3.566406 Z M 9.789062 -3.339844 C 9.714844 -3.339844 9.714844 -3.339844 9.714844 -3.414062 C 9.714844 -3.492188 9.714844 -3.492188 9.789062 -3.492188 C 9.867188 -3.492188 9.867188 -3.492188 9.867188 -3.414062 C 9.867188 -3.339844 9.867188 -3.339844 9.789062 -3.339844 Z M 6.300781 -3.414062 C 6.375 -3.414062 6.375 -3.414062 6.375 -3.339844 C 6.375 -3.261719 6.375 -3.261719 6.300781 -3.261719 Z M 9.714844 -3.035156 L 9.714844 -3.1875 C 9.789062 -3.1875 9.789062 -3.1875 9.789062 -3.113281 C 9.789062 -3.035156 9.789062 -3.035156 9.714844 -3.035156 Z M 5.917969 -3.113281 C 5.996094 -3.113281 5.996094 -3.113281 5.996094 -3.035156 C 5.996094 -2.960938 5.996094 -2.960938 5.917969 -2.960938 C 5.84375 -2.960938 5.84375 -2.960938 5.84375 -3.035156 C 5.84375 -3.113281 5.84375 -3.113281 5.917969 -3.113281 Z M 6.148438 -3.113281 C 6.222656 -3.113281 6.222656 -3.113281 6.222656 -3.035156 C 6.222656 -2.960938 6.222656 -2.960938 6.148438 -2.960938 C 6.070312 -2.960938 6.070312 -2.960938 6.070312 -3.035156 C 6.070312 -3.113281 6.070312 -3.113281 6.148438 -3.113281 Z M 9.636719 -2.808594 C 9.5625 -2.808594 9.5625 -2.808594 9.5625 -2.882812 C 9.5625 -2.960938 9.5625 -2.960938 9.636719 -2.960938 C 9.714844 -2.960938 9.714844 -2.960938 9.714844 -2.882812 C 9.714844 -2.808594 9.714844 -2.808594 9.636719 -2.808594 Z M 6.148438 -2.882812 C 6.148438 -2.808594 6.070312 -2.730469 5.996094 -2.730469 L 5.917969 -2.808594 C 5.996094 -2.882812 6.070312 -2.882812 6.148438 -2.882812 Z M 5.917969 -2.582031 C 5.84375 -2.582031 5.84375 -2.582031 5.84375 -2.65625 Z M 9.636719 -2.429688 L 9.5625 -2.429688 L 9.5625 -2.582031 L 9.636719 -2.582031 Z M 9.410156 -2.503906 C 9.488281 -2.503906 9.488281 -2.503906 9.488281 -2.429688 C 9.488281 -2.351562 9.488281 -2.351562 9.410156 -2.351562 C 9.335938 -2.351562 9.335938 -2.351562 9.335938 -2.429688 C 9.335938 -2.503906 9.335938 -2.503906 9.410156 -2.503906 Z M 5.691406 -2.429688 C 5.691406 -2.050781 5.617188 -1.820312 5.386719 -1.746094 C 5.386719 -1.820312 5.617188 -2.351562 5.691406 -2.429688 Z M 9.488281 -2.199219 C 9.410156 -2.199219 9.410156 -2.199219 9.410156 -2.277344 C 9.410156 -2.351562 9.410156 -2.351562 9.488281 -2.351562 C 9.5625 -2.351562 9.5625 -2.351562 9.5625 -2.277344 C 9.5625 -2.199219 9.5625 -2.199219 9.488281 -2.199219 Z M 9.410156 -2.125 C 9.488281 -2.125 9.488281 -2.125 9.488281 -2.050781 C 9.488281 -1.972656 9.488281 -1.972656 9.410156 -1.972656 Z M 9.335938 -1.667969 L 9.335938 -1.746094 L 9.410156 -1.746094 C 9.335938 -1.746094 9.335938 -1.746094 9.335938 -1.820312 C 9.335938 -1.898438 9.335938 -1.898438 9.410156 -1.898438 C 9.488281 -1.898438 9.488281 -1.898438 9.488281 -1.820312 C 9.488281 -1.746094 9.488281 -1.746094 9.410156 -1.746094 C 9.410156 -1.667969 9.410156 -1.667969 9.335938 -1.667969 Z M 5.3125 -1.746094 C 5.386719 -1.746094 5.386719 -1.746094 5.386719 -1.667969 C 5.386719 -1.59375 5.386719 -1.59375 5.3125 -1.59375 C 5.238281 -1.59375 5.238281 -1.59375 5.238281 -1.667969 C 5.238281 -1.746094 5.238281 -1.746094 5.3125 -1.746094 Z M 9.488281 -1.519531 C 9.410156 -1.519531 9.410156 -1.519531 9.410156 -1.59375 C 9.410156 -1.667969 9.410156 -1.667969 9.488281 -1.667969 C 9.5625 -1.667969 9.5625 -1.667969 9.5625 -1.59375 C 9.5625 -1.519531 9.5625 -1.519531 9.488281 -1.519531 Z M 5.085938 -1.367188 C 5.085938 -1.441406 5.160156 -1.519531 5.238281 -1.519531 C 5.238281 -1.289062 5.160156 -1.0625 4.933594 -0.988281 L 4.855469 -1.0625 C 4.933594 -1.136719 5.007812 -1.214844 5.085938 -1.367188 Z M 9.335938 -1.367188 L 9.257812 -1.214844 L 9.257812 -1.367188 C 9.257812 -1.519531 9.257812 -1.519531 9.335938 -1.519531 Z M 9.183594 -0.910156 L 9.105469 -0.988281 L 9.183594 -1.136719 L 9.257812 -1.0625 C 9.257812 -0.988281 9.257812 -0.988281 9.183594 -0.910156 Z M 4.476562 -0.304688 L 4.78125 -0.910156 L 4.855469 -0.910156 L 4.855469 -0.757812 L 4.476562 -0.152344 Z M 9.183594 -0.757812 L 9.105469 -0.835938 C 9.183594 -0.835938 9.257812 -0.835938 9.183594 -0.757812 Z M 9.105469 -0.226562 C 9.03125 -0.226562 9.03125 -0.226562 9.03125 -0.304688 C 9.03125 -0.378906 9.03125 -0.378906 9.105469 -0.378906 C 9.183594 -0.378906 9.183594 -0.378906 9.183594 -0.304688 C 9.183594 -0.226562 9.183594 -0.226562 9.105469 -0.226562 Z M 8.957031 -0.152344 C 8.878906 -0.152344 8.878906 -0.152344 8.878906 -0.226562 C 8.878906 -0.304688 8.878906 -0.304688 8.957031 -0.304688 C 9.03125 -0.304688 9.03125 -0.304688 9.03125 -0.226562 C 9.03125 -0.152344 9.03125 -0.152344 8.957031 -0.152344 Z M 4.175781 0.304688 C 4.25 0.226562 4.25 0.226562 4.25 0.152344 L 4.402344 -0.0742188 C 4.402344 0.226562 4.324219 0.378906 4.097656 0.378906 Z M 8.957031 0.0742188 L 8.804688 0 C 8.878906 -0.0742188 8.878906 -0.0742188 8.957031 -0.0742188 Z M 8.726562 0.757812 L 8.726562 0.605469 C 8.726562 0.53125 8.726562 0.457031 8.804688 0.378906 C 8.804688 0.605469 8.804688 0.757812 8.726562 0.757812 Z M 2.65625 3.1875 C 2.65625 2.730469 3.644531 0.757812 4.023438 0.53125 L 4.023438 0.683594 C 4.023438 0.835938 2.960938 3.1875 2.65625 3.339844 Z M 8.652344 0.910156 C 8.574219 0.910156 8.574219 0.910156 8.574219 0.835938 C 8.574219 0.757812 8.574219 0.757812 8.652344 0.757812 C 8.726562 0.757812 8.726562 0.757812 8.726562 0.835938 C 8.726562 0.910156 8.726562 0.910156 8.652344 0.910156 Z M 8.425781 1.59375 L 8.425781 1.441406 C 8.425781 1.214844 8.5 1.136719 8.652344 1.0625 C 8.652344 1.214844 8.574219 1.441406 8.425781 1.59375 Z M 8.347656 1.820312 L 8.347656 1.667969 C 8.425781 1.667969 8.425781 1.667969 8.425781 1.746094 C 8.425781 1.820312 8.425781 1.820312 8.347656 1.820312 Z M 8.273438 2.050781 L 8.121094 2.050781 L 8.273438 1.898438 Z M 2.808594 2.199219 C 2.882812 2.199219 2.882812 2.199219 2.882812 2.277344 L 2.808594 2.277344 Z M 7.96875 2.808594 L 7.96875 2.730469 C 8.042969 2.730469 8.042969 2.730469 8.042969 2.808594 Z M 7.816406 3.035156 L 7.816406 2.960938 C 7.894531 2.960938 7.894531 2.960938 7.894531 3.035156 Z M 2.503906 3.113281 C 2.582031 3.113281 2.582031 3.113281 2.582031 3.1875 C 2.582031 3.261719 2.582031 3.261719 2.503906 3.261719 C 2.429688 3.261719 2.429688 3.261719 2.429688 3.1875 C 2.429688 3.113281 2.429688 3.113281 2.503906 3.113281 Z M 7.589844 3.566406 C 7.511719 3.566406 7.511719 3.566406 7.511719 3.492188 C 7.511719 3.414062 7.511719 3.414062 7.589844 3.414062 C 7.664062 3.414062 7.664062 3.414062 7.664062 3.492188 C 7.664062 3.566406 7.664062 3.566406 7.589844 3.566406 Z M 7.210938 4.25 L 7.285156 4.324219 C 7.210938 4.324219 7.210938 4.324219 7.210938 4.25 Z M 7.132812 4.554688 C 7.058594 4.554688 7.058594 4.554688 7.058594 4.476562 C 7.058594 4.402344 7.058594 4.402344 7.132812 4.402344 C 7.210938 4.402344 7.210938 4.402344 7.210938 4.476562 C 7.210938 4.554688 7.210938 4.554688 7.132812 4.554688 Z M 2.050781 5.917969 C 2.199219 5.539062 2.351562 5.160156 2.429688 4.707031 C 2.277344 5.085938 2.199219 5.539062 2.050781 5.917969 Z M 6.90625 5.007812 C 6.832031 5.007812 6.832031 5.007812 6.832031 4.933594 C 6.832031 4.855469 6.832031 4.855469 6.90625 4.855469 C 6.980469 4.855469 6.980469 4.855469 6.980469 4.933594 C 6.980469 5.007812 6.980469 5.007812 6.90625 5.007812 Z M 6.679688 5.3125 C 6.601562 5.3125 6.601562 5.3125 6.601562 5.238281 C 6.601562 5.160156 6.601562 5.160156 6.679688 5.160156 C 6.753906 5.160156 6.753906 5.160156 6.753906 5.238281 C 6.753906 5.3125 6.753906 5.3125 6.679688 5.3125 Z M 1.519531 5.238281 C 1.59375 5.238281 1.59375 5.238281 1.59375 5.3125 C 1.59375 5.386719 1.59375 5.386719 1.519531 5.386719 C 1.441406 5.386719 1.441406 5.386719 1.441406 5.3125 C 1.441406 5.238281 1.441406 5.238281 1.519531 5.238281 Z M 1.289062 5.84375 C 1.367188 5.84375 1.367188 5.84375 1.367188 5.917969 C 1.367188 5.996094 1.367188 5.996094 1.289062 5.996094 C 1.214844 5.996094 1.214844 5.996094 1.214844 5.917969 C 1.214844 5.84375 1.214844 5.84375 1.289062 5.84375 Z M 6.148438 6.148438 C 6.070312 6.148438 6.070312 6.148438 6.070312 6.070312 C 6.070312 5.996094 6.070312 5.996094 6.148438 5.996094 C 6.222656 5.996094 6.222656 5.996094 6.222656 6.070312 C 6.222656 6.148438 6.222656 6.148438 6.148438 6.148438 Z M 5.996094 6.375 C 5.917969 6.375 5.917969 6.375 5.917969 6.300781 C 5.917969 6.222656 5.917969 6.222656 5.996094 6.222656 C 6.070312 6.222656 6.070312 6.222656 6.070312 6.300781 C 6.070312 6.375 6.070312 6.375 5.996094 6.375 Z M 1.136719 6.300781 C 1.214844 6.300781 1.214844 6.300781 1.214844 6.375 C 1.214844 6.449219 1.214844 6.449219 1.136719 6.449219 C 1.0625 6.449219 1.0625 6.449219 1.0625 6.375 C 1.0625 6.300781 1.0625 6.300781 1.136719 6.300781 Z M 5.917969 6.527344 C 5.84375 6.527344 5.84375 6.527344 5.84375 6.449219 C 5.84375 6.375 5.84375 6.375 5.917969 6.375 C 5.996094 6.375 5.996094 6.375 5.996094 6.449219 C 5.996094 6.527344 5.996094 6.527344 5.917969 6.527344 Z M 0.910156 8.878906 C 0.835938 8.878906 0.835938 8.878906 0.835938 8.804688 C 0.835938 8.726562 0.835938 8.726562 0.910156 8.726562 C 0.988281 8.726562 0.988281 8.726562 0.988281 8.804688 C 0.988281 8.878906 0.988281 8.878906 0.910156 8.878906 Z M 1.59375 10.398438 L 1.214844 10.167969 C 1.289062 10.167969 1.289062 10.167969 1.367188 10.246094 L 1.519531 10.246094 C 1.59375 10.246094 1.59375 10.246094 1.667969 10.320312 Z M 1.59375 10.398438 "/></g></g></g><g fill="#000000" fill-opacity="1"><g transform="translate(187.073662, 54.322807)"><g><path d="M 3.546875 0.09375 C 2.929688 0.09375 2.359375 0.015625 1.828125 -0.140625 C 1.296875 -0.304688 0.847656 -0.539062 0.484375 -0.84375 L 0.96875 -1.890625 C 1.351562 -1.597656 1.753906 -1.382812 2.171875 -1.25 C 2.597656 -1.113281 3.054688 -1.046875 3.546875 -1.046875 C 4.097656 -1.046875 4.523438 -1.140625 4.828125 -1.328125 C 5.128906 -1.523438 5.28125 -1.800781 5.28125 -2.15625 C 5.28125 -2.445312 5.140625 -2.671875 4.859375 -2.828125 C 4.578125 -2.992188 4.117188 -3.144531 3.484375 -3.28125 C 2.492188 -3.5 1.769531 -3.78125 1.3125 -4.125 C 0.863281 -4.46875 0.640625 -4.960938 0.640625 -5.609375 C 0.640625 -6.078125 0.765625 -6.492188 1.015625 -6.859375 C 1.265625 -7.222656 1.617188 -7.507812 2.078125 -7.71875 C 2.546875 -7.925781 3.085938 -8.03125 3.703125 -8.03125 C 4.253906 -8.03125 4.78125 -7.945312 5.28125 -7.78125 C 5.78125 -7.613281 6.191406 -7.378906 6.515625 -7.078125 L 6.03125 -6.03125 C 5.332031 -6.601562 4.554688 -6.890625 3.703125 -6.890625 C 3.191406 -6.890625 2.785156 -6.78125 2.484375 -6.5625 C 2.179688 -6.351562 2.03125 -6.066406 2.03125 -5.703125 C 2.03125 -5.390625 2.160156 -5.148438 2.421875 -4.984375 C 2.691406 -4.828125 3.144531 -4.675781 3.78125 -4.53125 C 4.445312 -4.375 4.988281 -4.203125 5.40625 -4.015625 C 5.820312 -3.835938 6.140625 -3.601562 6.359375 -3.3125 C 6.585938 -3.03125 6.703125 -2.675781 6.703125 -2.25 C 6.703125 -1.769531 6.570312 -1.351562 6.3125 -1 C 6.0625 -0.65625 5.695312 -0.382812 5.21875 -0.1875 C 4.75 0 4.191406 0.09375 3.546875 0.09375 Z M 3.546875 0.09375 "/></g></g></g><g fill="#000000" fill-opacity="1"><g transform="translate(199.346979, 54.322807)"><g><path d="M 4.375 0.09375 C 3.613281 0.09375 2.945312 -0.0664062 2.375 -0.390625 C 1.8125 -0.722656 1.375 -1.195312 1.0625 -1.8125 C 0.757812 -2.425781 0.609375 -3.148438 0.609375 -3.984375 C 0.609375 -4.804688 0.757812 -5.519531 1.0625 -6.125 C 1.363281 -6.738281 1.796875 -7.207031 2.359375 -7.53125 C 2.929688 -7.863281 3.601562 -8.03125 4.375 -8.03125 C 5.144531 -8.03125 5.8125 -7.863281 6.375 -7.53125 C 6.945312 -7.207031 7.382812 -6.738281 7.6875 -6.125 C 7.988281 -5.519531 8.140625 -4.804688 8.140625 -3.984375 C 8.140625 -3.148438 7.988281 -2.425781 7.6875 -1.8125 C 7.382812 -1.195312 6.945312 -0.722656 6.375 -0.390625 C 5.8125 -0.0664062 5.144531 0.09375 4.375 0.09375 Z M 4.375 -1.046875 C 5.113281 -1.046875 5.6875 -1.296875 6.09375 -1.796875 C 6.5 -2.304688 6.703125 -3.035156 6.703125 -3.984375 C 6.703125 -4.910156 6.5 -5.625 6.09375 -6.125 C 5.6875 -6.632812 5.113281 -6.890625 4.375 -6.890625 C 3.644531 -6.890625 3.070312 -6.640625 2.65625 -6.140625 C 2.25 -5.640625 2.046875 -4.921875 2.046875 -3.984375 C 2.046875 -3.035156 2.25 -2.304688 2.65625 -1.796875 C 3.070312 -1.296875 3.644531 -1.046875 4.375 -1.046875 Z M 4.375 -1.046875 "/></g></g></g><g fill="#000000" fill-opacity="1"><g transform="translate(213.20283, 54.322807)"><g><path d="M 0.859375 0 L 0.859375 -7.9375 L 2.296875 -7.9375 L 2.296875 -1.1875 L 6 -1.1875 L 6 0 Z M 0.859375 0 "/></g></g></g><g fill="#000000" fill-opacity="1"><g transform="translate(224.540007, 54.322807)"><g><path d="M 0.859375 0 L 0.859375 -7.9375 L 2.296875 -7.9375 L 2.296875 0 Z M 0.859375 0 "/></g></g></g><g fill="#000000" fill-opacity="1"><g transform="translate(232.790133, 54.322807)"><g><path d="M 7.453125 -7.9375 L 8.59375 -7.9375 L 8.59375 0 L 7.3125 0 L 7.3125 -4.921875 L 5.21875 0 L 4.265625 0 L 2.15625 -4.875 L 2.15625 0 L 0.875 0 L 0.875 -7.9375 L 2.015625 -7.9375 L 4.75 -1.734375 Z M 7.453125 -7.9375 "/></g></g></g><g fill="#000000" fill-opacity="1"><g transform="translate(247.359238, 54.322807)"><g><path d="M 6.921875 0 L 6.125 -1.859375 L 2.25 -1.859375 L 1.453125 0 L 0 0 L 3.59375 -7.9375 L 4.75 -7.9375 L 8.359375 0 Z M 2.734375 -2.96875 L 5.640625 -2.96875 L 4.1875 -6.375 Z M 2.734375 -2.96875 "/></g></g></g><g fill="#000000" fill-opacity="1"><g transform="translate(260.813884, 54.322807)"><g><path d="M 6.1875 -7.9375 L 7.546875 -7.9375 L 7.546875 0 L 6.46875 0 L 2.1875 -5.5625 L 2.1875 0 L 0.859375 0 L 0.859375 -7.9375 L 1.921875 -7.9375 L 6.1875 -2.390625 Z M 6.1875 -7.9375 "/></g></g></g></svg>